<mxfile host="app.diagrams.net" modified="2023-10-30T13:12:04.483Z" agent="Mozilla/5.0 (Windows NT 10.0; Win64; x64) AppleWebKit/537.36 (KHTML, like Gecko) Chrome/118.0.0.0 Safari/537.36" etag="OrzA-YUB26-aVoV9Nw4i" version="22.0.8" type="device">
  <diagram name="페이지-1" id="VWkXKMVhzI48gJBWCIjC">
    <mxGraphModel dx="1383" dy="522" grid="0" gridSize="10" guides="0" tooltips="1" connect="1" arrows="1" fold="1" page="0" pageScale="1" pageWidth="827" pageHeight="1169" math="0" shadow="0">
      <root>
        <mxCell id="0" />
        <mxCell id="1" parent="0" />
        <mxCell id="GQ0HN8qUK4wQlYkosQbJ-122" value="" style="rounded=0;whiteSpace=wrap;html=1;fillColor=none;strokeColor=#FF3333;" vertex="1" parent="1">
          <mxGeometry x="195" y="230" width="255" height="330" as="geometry" />
        </mxCell>
        <mxCell id="GQ0HN8qUK4wQlYkosQbJ-1" value="8bit&lt;br style=&quot;font-size: 10px;&quot;&gt;FF" style="rounded=1;whiteSpace=wrap;html=1;fontSize=10;" vertex="1" parent="1">
          <mxGeometry x="200" y="240" width="30" height="30" as="geometry" />
        </mxCell>
        <mxCell id="GQ0HN8qUK4wQlYkosQbJ-2" value="8bit&lt;br style=&quot;font-size: 10px;&quot;&gt;FF" style="rounded=1;whiteSpace=wrap;html=1;fontSize=10;" vertex="1" parent="1">
          <mxGeometry x="240" y="240" width="30" height="30" as="geometry" />
        </mxCell>
        <mxCell id="GQ0HN8qUK4wQlYkosQbJ-3" value="8bit&lt;br style=&quot;font-size: 10px;&quot;&gt;FF" style="rounded=1;whiteSpace=wrap;html=1;fontSize=10;" vertex="1" parent="1">
          <mxGeometry x="280" y="240" width="30" height="30" as="geometry" />
        </mxCell>
        <mxCell id="GQ0HN8qUK4wQlYkosQbJ-4" value="8bit&lt;br style=&quot;font-size: 10px;&quot;&gt;FF" style="rounded=1;whiteSpace=wrap;html=1;fontSize=10;" vertex="1" parent="1">
          <mxGeometry x="320" y="240" width="30" height="30" as="geometry" />
        </mxCell>
        <mxCell id="GQ0HN8qUK4wQlYkosQbJ-5" value="8bit&lt;br style=&quot;font-size: 10px;&quot;&gt;FF" style="rounded=1;whiteSpace=wrap;html=1;fontSize=10;" vertex="1" parent="1">
          <mxGeometry x="200" y="280" width="30" height="30" as="geometry" />
        </mxCell>
        <mxCell id="GQ0HN8qUK4wQlYkosQbJ-6" value="8bit&lt;br style=&quot;font-size: 10px;&quot;&gt;FF" style="rounded=1;whiteSpace=wrap;html=1;fontSize=10;" vertex="1" parent="1">
          <mxGeometry x="240" y="280" width="30" height="30" as="geometry" />
        </mxCell>
        <mxCell id="GQ0HN8qUK4wQlYkosQbJ-7" value="8bit&lt;br style=&quot;font-size: 10px;&quot;&gt;FF" style="rounded=1;whiteSpace=wrap;html=1;fontSize=10;" vertex="1" parent="1">
          <mxGeometry x="280" y="280" width="30" height="30" as="geometry" />
        </mxCell>
        <mxCell id="GQ0HN8qUK4wQlYkosQbJ-8" value="8bit&lt;br style=&quot;font-size: 10px;&quot;&gt;FF" style="rounded=1;whiteSpace=wrap;html=1;fontSize=10;" vertex="1" parent="1">
          <mxGeometry x="320" y="280" width="30" height="30" as="geometry" />
        </mxCell>
        <mxCell id="GQ0HN8qUK4wQlYkosQbJ-9" value="8bit&lt;br style=&quot;font-size: 10px;&quot;&gt;FF" style="rounded=1;whiteSpace=wrap;html=1;fontSize=10;" vertex="1" parent="1">
          <mxGeometry x="200" y="320" width="30" height="30" as="geometry" />
        </mxCell>
        <mxCell id="GQ0HN8qUK4wQlYkosQbJ-10" value="8bit&lt;br style=&quot;font-size: 10px;&quot;&gt;FF" style="rounded=1;whiteSpace=wrap;html=1;fontSize=10;" vertex="1" parent="1">
          <mxGeometry x="240" y="320" width="30" height="30" as="geometry" />
        </mxCell>
        <mxCell id="GQ0HN8qUK4wQlYkosQbJ-11" value="8bit&lt;br style=&quot;font-size: 10px;&quot;&gt;FF" style="rounded=1;whiteSpace=wrap;html=1;fontSize=10;" vertex="1" parent="1">
          <mxGeometry x="280" y="320" width="30" height="30" as="geometry" />
        </mxCell>
        <mxCell id="GQ0HN8qUK4wQlYkosQbJ-12" value="8bit&lt;br style=&quot;font-size: 10px;&quot;&gt;FF" style="rounded=1;whiteSpace=wrap;html=1;fontSize=10;" vertex="1" parent="1">
          <mxGeometry x="320" y="320" width="30" height="30" as="geometry" />
        </mxCell>
        <mxCell id="GQ0HN8qUK4wQlYkosQbJ-13" value="8bit&lt;br style=&quot;font-size: 10px;&quot;&gt;FF" style="rounded=1;whiteSpace=wrap;html=1;fontSize=10;" vertex="1" parent="1">
          <mxGeometry x="200" y="360" width="30" height="30" as="geometry" />
        </mxCell>
        <mxCell id="GQ0HN8qUK4wQlYkosQbJ-14" value="8bit&lt;br style=&quot;font-size: 10px;&quot;&gt;FF" style="rounded=1;whiteSpace=wrap;html=1;fontSize=10;" vertex="1" parent="1">
          <mxGeometry x="240" y="360" width="30" height="30" as="geometry" />
        </mxCell>
        <mxCell id="GQ0HN8qUK4wQlYkosQbJ-15" value="8bit&lt;br style=&quot;font-size: 10px;&quot;&gt;FF" style="rounded=1;whiteSpace=wrap;html=1;fontSize=10;" vertex="1" parent="1">
          <mxGeometry x="280" y="360" width="30" height="30" as="geometry" />
        </mxCell>
        <mxCell id="GQ0HN8qUK4wQlYkosQbJ-16" value="8bit&lt;br style=&quot;font-size: 10px;&quot;&gt;FF" style="rounded=1;whiteSpace=wrap;html=1;fontSize=10;" vertex="1" parent="1">
          <mxGeometry x="320" y="360" width="30" height="30" as="geometry" />
        </mxCell>
        <mxCell id="GQ0HN8qUK4wQlYkosQbJ-17" value="8bit&lt;br style=&quot;font-size: 10px;&quot;&gt;FF" style="rounded=1;whiteSpace=wrap;html=1;fontSize=10;" vertex="1" parent="1">
          <mxGeometry x="200" y="400" width="30" height="30" as="geometry" />
        </mxCell>
        <mxCell id="GQ0HN8qUK4wQlYkosQbJ-18" value="8bit&lt;br style=&quot;font-size: 10px;&quot;&gt;FF" style="rounded=1;whiteSpace=wrap;html=1;fontSize=10;" vertex="1" parent="1">
          <mxGeometry x="240" y="400" width="30" height="30" as="geometry" />
        </mxCell>
        <mxCell id="GQ0HN8qUK4wQlYkosQbJ-19" value="8bit&lt;br style=&quot;font-size: 10px;&quot;&gt;FF" style="rounded=1;whiteSpace=wrap;html=1;fontSize=10;" vertex="1" parent="1">
          <mxGeometry x="280" y="400" width="30" height="30" as="geometry" />
        </mxCell>
        <mxCell id="GQ0HN8qUK4wQlYkosQbJ-20" value="8bit&lt;br style=&quot;font-size: 10px;&quot;&gt;FF" style="rounded=1;whiteSpace=wrap;html=1;fontSize=10;" vertex="1" parent="1">
          <mxGeometry x="320" y="400" width="30" height="30" as="geometry" />
        </mxCell>
        <mxCell id="GQ0HN8qUK4wQlYkosQbJ-21" value="8bit&lt;br style=&quot;font-size: 10px;&quot;&gt;FF" style="rounded=1;whiteSpace=wrap;html=1;fontSize=10;" vertex="1" parent="1">
          <mxGeometry x="200" y="440" width="30" height="30" as="geometry" />
        </mxCell>
        <mxCell id="GQ0HN8qUK4wQlYkosQbJ-22" value="8bit&lt;br style=&quot;font-size: 10px;&quot;&gt;FF" style="rounded=1;whiteSpace=wrap;html=1;fontSize=10;" vertex="1" parent="1">
          <mxGeometry x="240" y="440" width="30" height="30" as="geometry" />
        </mxCell>
        <mxCell id="GQ0HN8qUK4wQlYkosQbJ-23" value="8bit&lt;br style=&quot;font-size: 10px;&quot;&gt;FF" style="rounded=1;whiteSpace=wrap;html=1;fontSize=10;" vertex="1" parent="1">
          <mxGeometry x="280" y="440" width="30" height="30" as="geometry" />
        </mxCell>
        <mxCell id="GQ0HN8qUK4wQlYkosQbJ-24" value="8bit&lt;br style=&quot;font-size: 10px;&quot;&gt;FF" style="rounded=1;whiteSpace=wrap;html=1;fontSize=10;" vertex="1" parent="1">
          <mxGeometry x="320" y="440" width="30" height="30" as="geometry" />
        </mxCell>
        <mxCell id="GQ0HN8qUK4wQlYkosQbJ-25" value="8bit&lt;br style=&quot;font-size: 10px;&quot;&gt;FF" style="rounded=1;whiteSpace=wrap;html=1;fontSize=10;" vertex="1" parent="1">
          <mxGeometry x="200" y="480" width="30" height="30" as="geometry" />
        </mxCell>
        <mxCell id="GQ0HN8qUK4wQlYkosQbJ-26" value="8bit&lt;br style=&quot;font-size: 10px;&quot;&gt;FF" style="rounded=1;whiteSpace=wrap;html=1;fontSize=10;" vertex="1" parent="1">
          <mxGeometry x="240" y="480" width="30" height="30" as="geometry" />
        </mxCell>
        <mxCell id="GQ0HN8qUK4wQlYkosQbJ-27" value="8bit&lt;br style=&quot;font-size: 10px;&quot;&gt;FF" style="rounded=1;whiteSpace=wrap;html=1;fontSize=10;" vertex="1" parent="1">
          <mxGeometry x="280" y="480" width="30" height="30" as="geometry" />
        </mxCell>
        <mxCell id="GQ0HN8qUK4wQlYkosQbJ-28" value="8bit&lt;br style=&quot;font-size: 10px;&quot;&gt;FF" style="rounded=1;whiteSpace=wrap;html=1;fontSize=10;" vertex="1" parent="1">
          <mxGeometry x="320" y="480" width="30" height="30" as="geometry" />
        </mxCell>
        <mxCell id="GQ0HN8qUK4wQlYkosQbJ-29" value="8bit&lt;br style=&quot;font-size: 10px;&quot;&gt;FF" style="rounded=1;whiteSpace=wrap;html=1;fontSize=10;" vertex="1" parent="1">
          <mxGeometry x="200" y="520" width="30" height="30" as="geometry" />
        </mxCell>
        <mxCell id="GQ0HN8qUK4wQlYkosQbJ-30" value="8bit&lt;br style=&quot;font-size: 10px;&quot;&gt;FF" style="rounded=1;whiteSpace=wrap;html=1;fontSize=10;" vertex="1" parent="1">
          <mxGeometry x="240" y="520" width="30" height="30" as="geometry" />
        </mxCell>
        <mxCell id="GQ0HN8qUK4wQlYkosQbJ-31" value="8bit&lt;br style=&quot;font-size: 10px;&quot;&gt;FF" style="rounded=1;whiteSpace=wrap;html=1;fontSize=10;" vertex="1" parent="1">
          <mxGeometry x="280" y="520" width="30" height="30" as="geometry" />
        </mxCell>
        <mxCell id="GQ0HN8qUK4wQlYkosQbJ-32" value="8bit&lt;br style=&quot;font-size: 10px;&quot;&gt;FF" style="rounded=1;whiteSpace=wrap;html=1;fontSize=10;" vertex="1" parent="1">
          <mxGeometry x="320" y="520" width="30" height="30" as="geometry" />
        </mxCell>
        <mxCell id="GQ0HN8qUK4wQlYkosQbJ-33" value="8bit&lt;br style=&quot;font-size: 10px;&quot;&gt;FF" style="rounded=1;whiteSpace=wrap;html=1;fontSize=10;" vertex="1" parent="1">
          <mxGeometry x="520" y="240" width="30" height="30" as="geometry" />
        </mxCell>
        <mxCell id="GQ0HN8qUK4wQlYkosQbJ-34" value="8bit&lt;br style=&quot;font-size: 10px;&quot;&gt;FF" style="rounded=1;whiteSpace=wrap;html=1;fontSize=10;" vertex="1" parent="1">
          <mxGeometry x="560" y="240" width="30" height="30" as="geometry" />
        </mxCell>
        <mxCell id="GQ0HN8qUK4wQlYkosQbJ-35" value="8bit&lt;br style=&quot;font-size: 10px;&quot;&gt;FF" style="rounded=1;whiteSpace=wrap;html=1;fontSize=10;" vertex="1" parent="1">
          <mxGeometry x="600" y="240" width="30" height="30" as="geometry" />
        </mxCell>
        <mxCell id="GQ0HN8qUK4wQlYkosQbJ-36" value="8bit&lt;br style=&quot;font-size: 10px;&quot;&gt;FF" style="rounded=1;whiteSpace=wrap;html=1;fontSize=10;" vertex="1" parent="1">
          <mxGeometry x="640" y="240" width="30" height="30" as="geometry" />
        </mxCell>
        <mxCell id="GQ0HN8qUK4wQlYkosQbJ-37" value="8bit&lt;br style=&quot;font-size: 10px;&quot;&gt;FF" style="rounded=1;whiteSpace=wrap;html=1;fontSize=10;" vertex="1" parent="1">
          <mxGeometry x="520" y="280" width="30" height="30" as="geometry" />
        </mxCell>
        <mxCell id="GQ0HN8qUK4wQlYkosQbJ-38" value="8bit&lt;br style=&quot;font-size: 10px;&quot;&gt;FF" style="rounded=1;whiteSpace=wrap;html=1;fontSize=10;" vertex="1" parent="1">
          <mxGeometry x="560" y="280" width="30" height="30" as="geometry" />
        </mxCell>
        <mxCell id="GQ0HN8qUK4wQlYkosQbJ-39" value="8bit&lt;br style=&quot;font-size: 10px;&quot;&gt;FF" style="rounded=1;whiteSpace=wrap;html=1;fontSize=10;" vertex="1" parent="1">
          <mxGeometry x="600" y="280" width="30" height="30" as="geometry" />
        </mxCell>
        <mxCell id="GQ0HN8qUK4wQlYkosQbJ-40" value="8bit&lt;br style=&quot;font-size: 10px;&quot;&gt;FF" style="rounded=1;whiteSpace=wrap;html=1;fontSize=10;" vertex="1" parent="1">
          <mxGeometry x="640" y="280" width="30" height="30" as="geometry" />
        </mxCell>
        <mxCell id="GQ0HN8qUK4wQlYkosQbJ-41" value="8bit&lt;br style=&quot;font-size: 10px;&quot;&gt;FF" style="rounded=1;whiteSpace=wrap;html=1;fontSize=10;" vertex="1" parent="1">
          <mxGeometry x="520" y="320" width="30" height="30" as="geometry" />
        </mxCell>
        <mxCell id="GQ0HN8qUK4wQlYkosQbJ-42" value="8bit&lt;br style=&quot;font-size: 10px;&quot;&gt;FF" style="rounded=1;whiteSpace=wrap;html=1;fontSize=10;" vertex="1" parent="1">
          <mxGeometry x="560" y="320" width="30" height="30" as="geometry" />
        </mxCell>
        <mxCell id="GQ0HN8qUK4wQlYkosQbJ-43" value="8bit&lt;br style=&quot;font-size: 10px;&quot;&gt;FF" style="rounded=1;whiteSpace=wrap;html=1;fontSize=10;" vertex="1" parent="1">
          <mxGeometry x="600" y="320" width="30" height="30" as="geometry" />
        </mxCell>
        <mxCell id="GQ0HN8qUK4wQlYkosQbJ-44" value="8bit&lt;br style=&quot;font-size: 10px;&quot;&gt;FF" style="rounded=1;whiteSpace=wrap;html=1;fontSize=10;" vertex="1" parent="1">
          <mxGeometry x="640" y="320" width="30" height="30" as="geometry" />
        </mxCell>
        <mxCell id="GQ0HN8qUK4wQlYkosQbJ-45" value="8bit&lt;br style=&quot;font-size: 10px;&quot;&gt;FF" style="rounded=1;whiteSpace=wrap;html=1;fontSize=10;" vertex="1" parent="1">
          <mxGeometry x="520" y="360" width="30" height="30" as="geometry" />
        </mxCell>
        <mxCell id="GQ0HN8qUK4wQlYkosQbJ-46" value="8bit&lt;br style=&quot;font-size: 10px;&quot;&gt;FF" style="rounded=1;whiteSpace=wrap;html=1;fontSize=10;" vertex="1" parent="1">
          <mxGeometry x="560" y="360" width="30" height="30" as="geometry" />
        </mxCell>
        <mxCell id="GQ0HN8qUK4wQlYkosQbJ-47" value="8bit&lt;br style=&quot;font-size: 10px;&quot;&gt;FF" style="rounded=1;whiteSpace=wrap;html=1;fontSize=10;" vertex="1" parent="1">
          <mxGeometry x="600" y="360" width="30" height="30" as="geometry" />
        </mxCell>
        <mxCell id="GQ0HN8qUK4wQlYkosQbJ-48" value="8bit&lt;br style=&quot;font-size: 10px;&quot;&gt;FF" style="rounded=1;whiteSpace=wrap;html=1;fontSize=10;" vertex="1" parent="1">
          <mxGeometry x="640" y="360" width="30" height="30" as="geometry" />
        </mxCell>
        <mxCell id="GQ0HN8qUK4wQlYkosQbJ-49" value="8bit&lt;br style=&quot;font-size: 10px;&quot;&gt;FF" style="rounded=1;whiteSpace=wrap;html=1;fontSize=10;" vertex="1" parent="1">
          <mxGeometry x="520" y="400" width="30" height="30" as="geometry" />
        </mxCell>
        <mxCell id="GQ0HN8qUK4wQlYkosQbJ-50" value="8bit&lt;br style=&quot;font-size: 10px;&quot;&gt;FF" style="rounded=1;whiteSpace=wrap;html=1;fontSize=10;" vertex="1" parent="1">
          <mxGeometry x="560" y="400" width="30" height="30" as="geometry" />
        </mxCell>
        <mxCell id="GQ0HN8qUK4wQlYkosQbJ-51" value="8bit&lt;br style=&quot;font-size: 10px;&quot;&gt;FF" style="rounded=1;whiteSpace=wrap;html=1;fontSize=10;" vertex="1" parent="1">
          <mxGeometry x="600" y="400" width="30" height="30" as="geometry" />
        </mxCell>
        <mxCell id="GQ0HN8qUK4wQlYkosQbJ-52" value="8bit&lt;br style=&quot;font-size: 10px;&quot;&gt;FF" style="rounded=1;whiteSpace=wrap;html=1;fontSize=10;" vertex="1" parent="1">
          <mxGeometry x="640" y="400" width="30" height="30" as="geometry" />
        </mxCell>
        <mxCell id="GQ0HN8qUK4wQlYkosQbJ-53" value="8bit&lt;br style=&quot;font-size: 10px;&quot;&gt;FF" style="rounded=1;whiteSpace=wrap;html=1;fontSize=10;" vertex="1" parent="1">
          <mxGeometry x="520" y="440" width="30" height="30" as="geometry" />
        </mxCell>
        <mxCell id="GQ0HN8qUK4wQlYkosQbJ-54" value="8bit&lt;br style=&quot;font-size: 10px;&quot;&gt;FF" style="rounded=1;whiteSpace=wrap;html=1;fontSize=10;" vertex="1" parent="1">
          <mxGeometry x="560" y="440" width="30" height="30" as="geometry" />
        </mxCell>
        <mxCell id="GQ0HN8qUK4wQlYkosQbJ-55" value="8bit&lt;br style=&quot;font-size: 10px;&quot;&gt;FF" style="rounded=1;whiteSpace=wrap;html=1;fontSize=10;" vertex="1" parent="1">
          <mxGeometry x="600" y="440" width="30" height="30" as="geometry" />
        </mxCell>
        <mxCell id="GQ0HN8qUK4wQlYkosQbJ-56" value="8bit&lt;br style=&quot;font-size: 10px;&quot;&gt;FF" style="rounded=1;whiteSpace=wrap;html=1;fontSize=10;" vertex="1" parent="1">
          <mxGeometry x="640" y="440" width="30" height="30" as="geometry" />
        </mxCell>
        <mxCell id="GQ0HN8qUK4wQlYkosQbJ-57" value="8bit&lt;br style=&quot;font-size: 10px;&quot;&gt;FF" style="rounded=1;whiteSpace=wrap;html=1;fontSize=10;" vertex="1" parent="1">
          <mxGeometry x="520" y="480" width="30" height="30" as="geometry" />
        </mxCell>
        <mxCell id="GQ0HN8qUK4wQlYkosQbJ-58" value="8bit&lt;br style=&quot;font-size: 10px;&quot;&gt;FF" style="rounded=1;whiteSpace=wrap;html=1;fontSize=10;" vertex="1" parent="1">
          <mxGeometry x="560" y="480" width="30" height="30" as="geometry" />
        </mxCell>
        <mxCell id="GQ0HN8qUK4wQlYkosQbJ-59" value="8bit&lt;br style=&quot;font-size: 10px;&quot;&gt;FF" style="rounded=1;whiteSpace=wrap;html=1;fontSize=10;" vertex="1" parent="1">
          <mxGeometry x="600" y="480" width="30" height="30" as="geometry" />
        </mxCell>
        <mxCell id="GQ0HN8qUK4wQlYkosQbJ-60" value="8bit&lt;br style=&quot;font-size: 10px;&quot;&gt;FF" style="rounded=1;whiteSpace=wrap;html=1;fontSize=10;" vertex="1" parent="1">
          <mxGeometry x="640" y="480" width="30" height="30" as="geometry" />
        </mxCell>
        <mxCell id="GQ0HN8qUK4wQlYkosQbJ-61" value="8bit&lt;br style=&quot;font-size: 10px;&quot;&gt;FF" style="rounded=1;whiteSpace=wrap;html=1;fontSize=10;" vertex="1" parent="1">
          <mxGeometry x="520" y="520" width="30" height="30" as="geometry" />
        </mxCell>
        <mxCell id="GQ0HN8qUK4wQlYkosQbJ-62" value="8bit&lt;br style=&quot;font-size: 10px;&quot;&gt;FF" style="rounded=1;whiteSpace=wrap;html=1;fontSize=10;" vertex="1" parent="1">
          <mxGeometry x="560" y="520" width="30" height="30" as="geometry" />
        </mxCell>
        <mxCell id="GQ0HN8qUK4wQlYkosQbJ-63" value="8bit&lt;br style=&quot;font-size: 10px;&quot;&gt;FF" style="rounded=1;whiteSpace=wrap;html=1;fontSize=10;" vertex="1" parent="1">
          <mxGeometry x="600" y="520" width="30" height="30" as="geometry" />
        </mxCell>
        <mxCell id="GQ0HN8qUK4wQlYkosQbJ-64" value="8bit&lt;br style=&quot;font-size: 10px;&quot;&gt;FF" style="rounded=1;whiteSpace=wrap;html=1;fontSize=10;" vertex="1" parent="1">
          <mxGeometry x="640" y="520" width="30" height="30" as="geometry" />
        </mxCell>
        <mxCell id="GQ0HN8qUK4wQlYkosQbJ-65" value="8bit&lt;br style=&quot;font-size: 10px;&quot;&gt;FF" style="rounded=1;whiteSpace=wrap;html=1;fontSize=10;" vertex="1" parent="1">
          <mxGeometry x="680" y="240" width="30" height="30" as="geometry" />
        </mxCell>
        <mxCell id="GQ0HN8qUK4wQlYkosQbJ-66" value="8bit&lt;br style=&quot;font-size: 10px;&quot;&gt;FF" style="rounded=1;whiteSpace=wrap;html=1;fontSize=10;" vertex="1" parent="1">
          <mxGeometry x="720" y="240" width="30" height="30" as="geometry" />
        </mxCell>
        <mxCell id="GQ0HN8qUK4wQlYkosQbJ-67" value="8bit&lt;br style=&quot;font-size: 10px;&quot;&gt;FF" style="rounded=1;whiteSpace=wrap;html=1;fontSize=10;" vertex="1" parent="1">
          <mxGeometry x="760" y="240" width="30" height="30" as="geometry" />
        </mxCell>
        <mxCell id="GQ0HN8qUK4wQlYkosQbJ-68" value="8bit&lt;br style=&quot;font-size: 10px;&quot;&gt;FF" style="rounded=1;whiteSpace=wrap;html=1;fontSize=10;" vertex="1" parent="1">
          <mxGeometry x="800" y="240" width="30" height="30" as="geometry" />
        </mxCell>
        <mxCell id="GQ0HN8qUK4wQlYkosQbJ-69" value="8bit&lt;br style=&quot;font-size: 10px;&quot;&gt;FF" style="rounded=1;whiteSpace=wrap;html=1;fontSize=10;" vertex="1" parent="1">
          <mxGeometry x="680" y="280" width="30" height="30" as="geometry" />
        </mxCell>
        <mxCell id="GQ0HN8qUK4wQlYkosQbJ-70" value="8bit&lt;br style=&quot;font-size: 10px;&quot;&gt;FF" style="rounded=1;whiteSpace=wrap;html=1;fontSize=10;" vertex="1" parent="1">
          <mxGeometry x="720" y="280" width="30" height="30" as="geometry" />
        </mxCell>
        <mxCell id="GQ0HN8qUK4wQlYkosQbJ-71" value="8bit&lt;br style=&quot;font-size: 10px;&quot;&gt;FF" style="rounded=1;whiteSpace=wrap;html=1;fontSize=10;" vertex="1" parent="1">
          <mxGeometry x="760" y="280" width="30" height="30" as="geometry" />
        </mxCell>
        <mxCell id="GQ0HN8qUK4wQlYkosQbJ-72" value="8bit&lt;br style=&quot;font-size: 10px;&quot;&gt;FF" style="rounded=1;whiteSpace=wrap;html=1;fontSize=10;" vertex="1" parent="1">
          <mxGeometry x="800" y="280" width="30" height="30" as="geometry" />
        </mxCell>
        <mxCell id="GQ0HN8qUK4wQlYkosQbJ-73" value="8bit&lt;br style=&quot;font-size: 10px;&quot;&gt;FF" style="rounded=1;whiteSpace=wrap;html=1;fontSize=10;" vertex="1" parent="1">
          <mxGeometry x="680" y="320" width="30" height="30" as="geometry" />
        </mxCell>
        <mxCell id="GQ0HN8qUK4wQlYkosQbJ-74" value="8bit&lt;br style=&quot;font-size: 10px;&quot;&gt;FF" style="rounded=1;whiteSpace=wrap;html=1;fontSize=10;" vertex="1" parent="1">
          <mxGeometry x="720" y="320" width="30" height="30" as="geometry" />
        </mxCell>
        <mxCell id="GQ0HN8qUK4wQlYkosQbJ-75" value="8bit&lt;br style=&quot;font-size: 10px;&quot;&gt;FF" style="rounded=1;whiteSpace=wrap;html=1;fontSize=10;" vertex="1" parent="1">
          <mxGeometry x="760" y="320" width="30" height="30" as="geometry" />
        </mxCell>
        <mxCell id="GQ0HN8qUK4wQlYkosQbJ-76" value="8bit&lt;br style=&quot;font-size: 10px;&quot;&gt;FF" style="rounded=1;whiteSpace=wrap;html=1;fontSize=10;" vertex="1" parent="1">
          <mxGeometry x="800" y="320" width="30" height="30" as="geometry" />
        </mxCell>
        <mxCell id="GQ0HN8qUK4wQlYkosQbJ-77" value="8bit&lt;br style=&quot;font-size: 10px;&quot;&gt;FF" style="rounded=1;whiteSpace=wrap;html=1;fontSize=10;" vertex="1" parent="1">
          <mxGeometry x="680" y="360" width="30" height="30" as="geometry" />
        </mxCell>
        <mxCell id="GQ0HN8qUK4wQlYkosQbJ-78" value="8bit&lt;br style=&quot;font-size: 10px;&quot;&gt;FF" style="rounded=1;whiteSpace=wrap;html=1;fontSize=10;" vertex="1" parent="1">
          <mxGeometry x="720" y="360" width="30" height="30" as="geometry" />
        </mxCell>
        <mxCell id="GQ0HN8qUK4wQlYkosQbJ-79" value="8bit&lt;br style=&quot;font-size: 10px;&quot;&gt;FF" style="rounded=1;whiteSpace=wrap;html=1;fontSize=10;" vertex="1" parent="1">
          <mxGeometry x="760" y="360" width="30" height="30" as="geometry" />
        </mxCell>
        <mxCell id="GQ0HN8qUK4wQlYkosQbJ-80" value="8bit&lt;br style=&quot;font-size: 10px;&quot;&gt;FF" style="rounded=1;whiteSpace=wrap;html=1;fontSize=10;" vertex="1" parent="1">
          <mxGeometry x="800" y="360" width="30" height="30" as="geometry" />
        </mxCell>
        <mxCell id="GQ0HN8qUK4wQlYkosQbJ-81" value="8bit&lt;br style=&quot;font-size: 10px;&quot;&gt;FF" style="rounded=1;whiteSpace=wrap;html=1;fontSize=10;" vertex="1" parent="1">
          <mxGeometry x="680" y="400" width="30" height="30" as="geometry" />
        </mxCell>
        <mxCell id="GQ0HN8qUK4wQlYkosQbJ-82" value="8bit&lt;br style=&quot;font-size: 10px;&quot;&gt;FF" style="rounded=1;whiteSpace=wrap;html=1;fontSize=10;" vertex="1" parent="1">
          <mxGeometry x="720" y="400" width="30" height="30" as="geometry" />
        </mxCell>
        <mxCell id="GQ0HN8qUK4wQlYkosQbJ-83" value="8bit&lt;br style=&quot;font-size: 10px;&quot;&gt;FF" style="rounded=1;whiteSpace=wrap;html=1;fontSize=10;" vertex="1" parent="1">
          <mxGeometry x="760" y="400" width="30" height="30" as="geometry" />
        </mxCell>
        <mxCell id="GQ0HN8qUK4wQlYkosQbJ-84" value="8bit&lt;br style=&quot;font-size: 10px;&quot;&gt;FF" style="rounded=1;whiteSpace=wrap;html=1;fontSize=10;" vertex="1" parent="1">
          <mxGeometry x="800" y="400" width="30" height="30" as="geometry" />
        </mxCell>
        <mxCell id="GQ0HN8qUK4wQlYkosQbJ-85" value="8bit&lt;br style=&quot;font-size: 10px;&quot;&gt;FF" style="rounded=1;whiteSpace=wrap;html=1;fontSize=10;" vertex="1" parent="1">
          <mxGeometry x="680" y="440" width="30" height="30" as="geometry" />
        </mxCell>
        <mxCell id="GQ0HN8qUK4wQlYkosQbJ-86" value="8bit&lt;br style=&quot;font-size: 10px;&quot;&gt;FF" style="rounded=1;whiteSpace=wrap;html=1;fontSize=10;" vertex="1" parent="1">
          <mxGeometry x="720" y="440" width="30" height="30" as="geometry" />
        </mxCell>
        <mxCell id="GQ0HN8qUK4wQlYkosQbJ-87" value="8bit&lt;br style=&quot;font-size: 10px;&quot;&gt;FF" style="rounded=1;whiteSpace=wrap;html=1;fontSize=10;" vertex="1" parent="1">
          <mxGeometry x="760" y="440" width="30" height="30" as="geometry" />
        </mxCell>
        <mxCell id="GQ0HN8qUK4wQlYkosQbJ-88" value="8bit&lt;br style=&quot;font-size: 10px;&quot;&gt;FF" style="rounded=1;whiteSpace=wrap;html=1;fontSize=10;" vertex="1" parent="1">
          <mxGeometry x="800" y="440" width="30" height="30" as="geometry" />
        </mxCell>
        <mxCell id="GQ0HN8qUK4wQlYkosQbJ-89" value="8bit&lt;br style=&quot;font-size: 10px;&quot;&gt;FF" style="rounded=1;whiteSpace=wrap;html=1;fontSize=10;" vertex="1" parent="1">
          <mxGeometry x="680" y="480" width="30" height="30" as="geometry" />
        </mxCell>
        <mxCell id="GQ0HN8qUK4wQlYkosQbJ-90" value="8bit&lt;br style=&quot;font-size: 10px;&quot;&gt;FF" style="rounded=1;whiteSpace=wrap;html=1;fontSize=10;" vertex="1" parent="1">
          <mxGeometry x="720" y="480" width="30" height="30" as="geometry" />
        </mxCell>
        <mxCell id="GQ0HN8qUK4wQlYkosQbJ-91" value="8bit&lt;br style=&quot;font-size: 10px;&quot;&gt;FF" style="rounded=1;whiteSpace=wrap;html=1;fontSize=10;" vertex="1" parent="1">
          <mxGeometry x="760" y="480" width="30" height="30" as="geometry" />
        </mxCell>
        <mxCell id="GQ0HN8qUK4wQlYkosQbJ-92" value="8bit&lt;br style=&quot;font-size: 10px;&quot;&gt;FF" style="rounded=1;whiteSpace=wrap;html=1;fontSize=10;" vertex="1" parent="1">
          <mxGeometry x="800" y="480" width="30" height="30" as="geometry" />
        </mxCell>
        <mxCell id="GQ0HN8qUK4wQlYkosQbJ-93" value="8bit&lt;br style=&quot;font-size: 10px;&quot;&gt;FF" style="rounded=1;whiteSpace=wrap;html=1;fontSize=10;" vertex="1" parent="1">
          <mxGeometry x="680" y="520" width="30" height="30" as="geometry" />
        </mxCell>
        <mxCell id="GQ0HN8qUK4wQlYkosQbJ-94" value="8bit&lt;br style=&quot;font-size: 10px;&quot;&gt;FF" style="rounded=1;whiteSpace=wrap;html=1;fontSize=10;" vertex="1" parent="1">
          <mxGeometry x="720" y="520" width="30" height="30" as="geometry" />
        </mxCell>
        <mxCell id="GQ0HN8qUK4wQlYkosQbJ-95" value="8bit&lt;br style=&quot;font-size: 10px;&quot;&gt;FF" style="rounded=1;whiteSpace=wrap;html=1;fontSize=10;" vertex="1" parent="1">
          <mxGeometry x="760" y="520" width="30" height="30" as="geometry" />
        </mxCell>
        <mxCell id="GQ0HN8qUK4wQlYkosQbJ-96" value="8bit&lt;br style=&quot;font-size: 10px;&quot;&gt;FF" style="rounded=1;whiteSpace=wrap;html=1;fontSize=10;" vertex="1" parent="1">
          <mxGeometry x="800" y="520" width="30" height="30" as="geometry" />
        </mxCell>
        <mxCell id="GQ0HN8qUK4wQlYkosQbJ-97" value="8bit&lt;br style=&quot;font-size: 10px;&quot;&gt;FF" style="rounded=1;whiteSpace=wrap;html=1;fontSize=10;" vertex="1" parent="1">
          <mxGeometry x="840" y="240" width="30" height="30" as="geometry" />
        </mxCell>
        <mxCell id="GQ0HN8qUK4wQlYkosQbJ-98" value="8bit&lt;br style=&quot;font-size: 10px;&quot;&gt;FF" style="rounded=1;whiteSpace=wrap;html=1;fontSize=10;" vertex="1" parent="1">
          <mxGeometry x="840" y="280" width="30" height="30" as="geometry" />
        </mxCell>
        <mxCell id="GQ0HN8qUK4wQlYkosQbJ-99" value="8bit&lt;br style=&quot;font-size: 10px;&quot;&gt;FF" style="rounded=1;whiteSpace=wrap;html=1;fontSize=10;" vertex="1" parent="1">
          <mxGeometry x="840" y="320" width="30" height="30" as="geometry" />
        </mxCell>
        <mxCell id="GQ0HN8qUK4wQlYkosQbJ-100" value="8bit&lt;br style=&quot;font-size: 10px;&quot;&gt;FF" style="rounded=1;whiteSpace=wrap;html=1;fontSize=10;" vertex="1" parent="1">
          <mxGeometry x="840" y="360" width="30" height="30" as="geometry" />
        </mxCell>
        <mxCell id="GQ0HN8qUK4wQlYkosQbJ-101" value="8bit&lt;br style=&quot;font-size: 10px;&quot;&gt;FF" style="rounded=1;whiteSpace=wrap;html=1;fontSize=10;" vertex="1" parent="1">
          <mxGeometry x="840" y="400" width="30" height="30" as="geometry" />
        </mxCell>
        <mxCell id="GQ0HN8qUK4wQlYkosQbJ-102" value="8bit&lt;br style=&quot;font-size: 10px;&quot;&gt;FF" style="rounded=1;whiteSpace=wrap;html=1;fontSize=10;" vertex="1" parent="1">
          <mxGeometry x="840" y="440" width="30" height="30" as="geometry" />
        </mxCell>
        <mxCell id="GQ0HN8qUK4wQlYkosQbJ-103" value="8bit&lt;br style=&quot;font-size: 10px;&quot;&gt;FF" style="rounded=1;whiteSpace=wrap;html=1;fontSize=10;" vertex="1" parent="1">
          <mxGeometry x="840" y="480" width="30" height="30" as="geometry" />
        </mxCell>
        <mxCell id="GQ0HN8qUK4wQlYkosQbJ-104" value="8bit&lt;br style=&quot;font-size: 10px;&quot;&gt;FF" style="rounded=1;whiteSpace=wrap;html=1;fontSize=10;" vertex="1" parent="1">
          <mxGeometry x="840" y="520" width="30" height="30" as="geometry" />
        </mxCell>
        <mxCell id="GQ0HN8qUK4wQlYkosQbJ-106" value="Width = 80" style="text;html=1;strokeColor=none;fillColor=none;align=center;verticalAlign=middle;whiteSpace=wrap;rounded=0;" vertex="1" parent="1">
          <mxGeometry x="470" y="160" width="80" height="30" as="geometry" />
        </mxCell>
        <mxCell id="GQ0HN8qUK4wQlYkosQbJ-107" value="" style="endArrow=none;dashed=1;html=1;dashPattern=1 3;strokeWidth=2;rounded=0;" edge="1" parent="1">
          <mxGeometry width="50" height="50" relative="1" as="geometry">
            <mxPoint x="360" y="400" as="sourcePoint" />
            <mxPoint x="510" y="400" as="targetPoint" />
          </mxGeometry>
        </mxCell>
        <mxCell id="GQ0HN8qUK4wQlYkosQbJ-108" value="Height = 8" style="text;html=1;strokeColor=none;fillColor=none;align=center;verticalAlign=middle;whiteSpace=wrap;rounded=0;" vertex="1" parent="1">
          <mxGeometry x="100" y="377" width="60" height="30" as="geometry" />
        </mxCell>
        <mxCell id="GQ0HN8qUK4wQlYkosQbJ-109" value="" style="endArrow=none;html=1;rounded=0;entryX=0;entryY=0.5;entryDx=0;entryDy=0;" edge="1" parent="1" target="GQ0HN8qUK4wQlYkosQbJ-106">
          <mxGeometry width="50" height="50" relative="1" as="geometry">
            <mxPoint x="200" y="240" as="sourcePoint" />
            <mxPoint x="250" y="190" as="targetPoint" />
          </mxGeometry>
        </mxCell>
        <mxCell id="GQ0HN8qUK4wQlYkosQbJ-111" value="" style="endArrow=none;html=1;rounded=0;entryX=1;entryY=0;entryDx=0;entryDy=0;exitX=1;exitY=0.5;exitDx=0;exitDy=0;" edge="1" parent="1" source="GQ0HN8qUK4wQlYkosQbJ-106" target="GQ0HN8qUK4wQlYkosQbJ-68">
          <mxGeometry width="50" height="50" relative="1" as="geometry">
            <mxPoint x="550" y="350" as="sourcePoint" />
            <mxPoint x="600" y="300" as="targetPoint" />
          </mxGeometry>
        </mxCell>
        <mxCell id="GQ0HN8qUK4wQlYkosQbJ-112" value="8bit&lt;br style=&quot;font-size: 10px;&quot;&gt;FF" style="rounded=1;whiteSpace=wrap;html=1;fontSize=10;" vertex="1" parent="1">
          <mxGeometry x="880" y="240" width="30" height="30" as="geometry" />
        </mxCell>
        <mxCell id="GQ0HN8qUK4wQlYkosQbJ-113" value="8bit&lt;br style=&quot;font-size: 10px;&quot;&gt;FF" style="rounded=1;whiteSpace=wrap;html=1;fontSize=10;" vertex="1" parent="1">
          <mxGeometry x="880" y="280" width="30" height="30" as="geometry" />
        </mxCell>
        <mxCell id="GQ0HN8qUK4wQlYkosQbJ-114" value="8bit&lt;br style=&quot;font-size: 10px;&quot;&gt;FF" style="rounded=1;whiteSpace=wrap;html=1;fontSize=10;" vertex="1" parent="1">
          <mxGeometry x="880" y="320" width="30" height="30" as="geometry" />
        </mxCell>
        <mxCell id="GQ0HN8qUK4wQlYkosQbJ-115" value="8bit&lt;br style=&quot;font-size: 10px;&quot;&gt;FF" style="rounded=1;whiteSpace=wrap;html=1;fontSize=10;" vertex="1" parent="1">
          <mxGeometry x="880" y="360" width="30" height="30" as="geometry" />
        </mxCell>
        <mxCell id="GQ0HN8qUK4wQlYkosQbJ-116" value="8bit&lt;br style=&quot;font-size: 10px;&quot;&gt;FF" style="rounded=1;whiteSpace=wrap;html=1;fontSize=10;" vertex="1" parent="1">
          <mxGeometry x="880" y="400" width="30" height="30" as="geometry" />
        </mxCell>
        <mxCell id="GQ0HN8qUK4wQlYkosQbJ-117" value="8bit&lt;br style=&quot;font-size: 10px;&quot;&gt;FF" style="rounded=1;whiteSpace=wrap;html=1;fontSize=10;" vertex="1" parent="1">
          <mxGeometry x="880" y="440" width="30" height="30" as="geometry" />
        </mxCell>
        <mxCell id="GQ0HN8qUK4wQlYkosQbJ-118" value="8bit&lt;br style=&quot;font-size: 10px;&quot;&gt;FF" style="rounded=1;whiteSpace=wrap;html=1;fontSize=10;" vertex="1" parent="1">
          <mxGeometry x="880" y="480" width="30" height="30" as="geometry" />
        </mxCell>
        <mxCell id="GQ0HN8qUK4wQlYkosQbJ-119" value="8bit&lt;br style=&quot;font-size: 10px;&quot;&gt;FF" style="rounded=1;whiteSpace=wrap;html=1;fontSize=10;" vertex="1" parent="1">
          <mxGeometry x="880" y="520" width="30" height="30" as="geometry" />
        </mxCell>
        <mxCell id="GQ0HN8qUK4wQlYkosQbJ-120" value="" style="endArrow=none;html=1;rounded=0;exitX=0.5;exitY=0;exitDx=0;exitDy=0;" edge="1" parent="1" source="GQ0HN8qUK4wQlYkosQbJ-108">
          <mxGeometry width="50" height="50" relative="1" as="geometry">
            <mxPoint x="550" y="370" as="sourcePoint" />
            <mxPoint x="200" y="240" as="targetPoint" />
          </mxGeometry>
        </mxCell>
        <mxCell id="GQ0HN8qUK4wQlYkosQbJ-121" value="" style="endArrow=none;html=1;rounded=0;exitX=0.5;exitY=1;exitDx=0;exitDy=0;entryX=0;entryY=1;entryDx=0;entryDy=0;" edge="1" parent="1" source="GQ0HN8qUK4wQlYkosQbJ-108" target="GQ0HN8qUK4wQlYkosQbJ-29">
          <mxGeometry width="50" height="50" relative="1" as="geometry">
            <mxPoint x="550" y="370" as="sourcePoint" />
            <mxPoint x="600" y="320" as="targetPoint" />
          </mxGeometry>
        </mxCell>
        <mxCell id="GQ0HN8qUK4wQlYkosQbJ-123" value="Input Feature Map" style="text;html=1;strokeColor=none;fillColor=none;align=center;verticalAlign=middle;whiteSpace=wrap;rounded=0;fontColor=#FF3333;" vertex="1" parent="1">
          <mxGeometry x="370" y="200" width="90" height="30" as="geometry" />
        </mxCell>
        <mxCell id="GQ0HN8qUK4wQlYkosQbJ-124" value="" style="rounded=0;whiteSpace=wrap;html=1;fillColor=none;strokeColor=#FF9933;" vertex="1" parent="1">
          <mxGeometry x="514" y="237" width="320" height="37" as="geometry" />
        </mxCell>
        <mxCell id="GQ0HN8qUK4wQlYkosQbJ-125" value="" style="rounded=0;whiteSpace=wrap;html=1;fillColor=none;strokeColor=#FFFF66;" vertex="1" parent="1">
          <mxGeometry x="514" y="277" width="320" height="37" as="geometry" />
        </mxCell>
        <mxCell id="GQ0HN8qUK4wQlYkosQbJ-126" value="" style="rounded=0;whiteSpace=wrap;html=1;fillColor=none;strokeColor=#99FF33;" vertex="1" parent="1">
          <mxGeometry x="514" y="318" width="320" height="37" as="geometry" />
        </mxCell>
        <mxCell id="GQ0HN8qUK4wQlYkosQbJ-127" value="" style="rounded=0;whiteSpace=wrap;html=1;fillColor=none;strokeColor=#0000FF;" vertex="1" parent="1">
          <mxGeometry x="514" y="357" width="320" height="37" as="geometry" />
        </mxCell>
        <mxCell id="GQ0HN8qUK4wQlYkosQbJ-129" value="" style="rounded=0;whiteSpace=wrap;html=1;fillColor=none;strokeColor=#FF0080;" vertex="1" parent="1">
          <mxGeometry x="514" y="398" width="320" height="37" as="geometry" />
        </mxCell>
        <mxCell id="GQ0HN8qUK4wQlYkosQbJ-130" value="" style="rounded=0;whiteSpace=wrap;html=1;fillColor=none;strokeColor=#9933FF;" vertex="1" parent="1">
          <mxGeometry x="514" y="438" width="320" height="37" as="geometry" />
        </mxCell>
        <mxCell id="GQ0HN8qUK4wQlYkosQbJ-131" value="" style="rounded=0;whiteSpace=wrap;html=1;fillColor=none;strokeColor=#33FFFF;" vertex="1" parent="1">
          <mxGeometry x="514" y="477" width="320" height="37" as="geometry" />
        </mxCell>
        <mxCell id="GQ0HN8qUK4wQlYkosQbJ-132" value="" style="rounded=0;whiteSpace=wrap;html=1;fillColor=none;strokeColor=#FFFF33;" vertex="1" parent="1">
          <mxGeometry x="514" y="517" width="320" height="37" as="geometry" />
        </mxCell>
        <mxCell id="GQ0HN8qUK4wQlYkosQbJ-133" value="Weight" style="text;html=1;strokeColor=none;fillColor=none;align=center;verticalAlign=middle;whiteSpace=wrap;rounded=0;fontColor=#FF9933;" vertex="1" parent="1">
          <mxGeometry x="520" y="210" width="60" height="30" as="geometry" />
        </mxCell>
        <mxCell id="GQ0HN8qUK4wQlYkosQbJ-134" value="" style="rounded=0;whiteSpace=wrap;html=1;fillColor=none;strokeColor=#3333FF;fontColor=#3333FF;" vertex="1" parent="1">
          <mxGeometry x="836" y="236" width="80" height="320" as="geometry" />
        </mxCell>
        <mxCell id="GQ0HN8qUK4wQlYkosQbJ-135" value="Bias" style="text;html=1;strokeColor=none;fillColor=none;align=center;verticalAlign=middle;whiteSpace=wrap;rounded=0;fontColor=#3333FF;" vertex="1" parent="1">
          <mxGeometry x="846" y="210" width="60" height="30" as="geometry" />
        </mxCell>
        <mxCell id="GQ0HN8qUK4wQlYkosQbJ-136" value="" style="rounded=0;whiteSpace=wrap;html=1;fillColor=none;strokeColor=#FF9933;" vertex="1" parent="1">
          <mxGeometry x="457" y="237" width="51" height="320" as="geometry" />
        </mxCell>
        <mxCell id="GQ0HN8qUK4wQlYkosQbJ-137" value="Additional Weight" style="text;html=1;strokeColor=none;fillColor=none;align=center;verticalAlign=middle;whiteSpace=wrap;rounded=0;fontColor=#FF9933;" vertex="1" parent="1">
          <mxGeometry x="454" y="207" width="60" height="30" as="geometry" />
        </mxCell>
        <mxCell id="GQ0HN8qUK4wQlYkosQbJ-159" value="8bit&lt;br style=&quot;font-size: 10px;&quot;&gt;FF" style="rounded=1;whiteSpace=wrap;html=1;fontSize=10;" vertex="1" parent="1">
          <mxGeometry x="201" y="600" width="30" height="30" as="geometry" />
        </mxCell>
        <mxCell id="GQ0HN8qUK4wQlYkosQbJ-160" value="8bit&lt;br style=&quot;font-size: 10px;&quot;&gt;FF" style="rounded=1;whiteSpace=wrap;html=1;fontSize=10;" vertex="1" parent="1">
          <mxGeometry x="241" y="600" width="30" height="30" as="geometry" />
        </mxCell>
        <mxCell id="GQ0HN8qUK4wQlYkosQbJ-161" value="8bit&lt;br style=&quot;font-size: 10px;&quot;&gt;FF" style="rounded=1;whiteSpace=wrap;html=1;fontSize=10;" vertex="1" parent="1">
          <mxGeometry x="281" y="600" width="30" height="30" as="geometry" />
        </mxCell>
        <mxCell id="GQ0HN8qUK4wQlYkosQbJ-162" value="8bit&lt;br style=&quot;font-size: 10px;&quot;&gt;FF" style="rounded=1;whiteSpace=wrap;html=1;fontSize=10;" vertex="1" parent="1">
          <mxGeometry x="321" y="600" width="30" height="30" as="geometry" />
        </mxCell>
        <mxCell id="GQ0HN8qUK4wQlYkosQbJ-163" value="8bit&lt;br style=&quot;font-size: 10px;&quot;&gt;FF" style="rounded=1;whiteSpace=wrap;html=1;fontSize=10;" vertex="1" parent="1">
          <mxGeometry x="201" y="640" width="30" height="30" as="geometry" />
        </mxCell>
        <mxCell id="GQ0HN8qUK4wQlYkosQbJ-164" value="8bit&lt;br style=&quot;font-size: 10px;&quot;&gt;FF" style="rounded=1;whiteSpace=wrap;html=1;fontSize=10;" vertex="1" parent="1">
          <mxGeometry x="241" y="640" width="30" height="30" as="geometry" />
        </mxCell>
        <mxCell id="GQ0HN8qUK4wQlYkosQbJ-165" value="8bit&lt;br style=&quot;font-size: 10px;&quot;&gt;FF" style="rounded=1;whiteSpace=wrap;html=1;fontSize=10;" vertex="1" parent="1">
          <mxGeometry x="281" y="640" width="30" height="30" as="geometry" />
        </mxCell>
        <mxCell id="GQ0HN8qUK4wQlYkosQbJ-166" value="8bit&lt;br style=&quot;font-size: 10px;&quot;&gt;FF" style="rounded=1;whiteSpace=wrap;html=1;fontSize=10;" vertex="1" parent="1">
          <mxGeometry x="321" y="640" width="30" height="30" as="geometry" />
        </mxCell>
        <mxCell id="GQ0HN8qUK4wQlYkosQbJ-167" value="8bit&lt;br style=&quot;font-size: 10px;&quot;&gt;FF" style="rounded=1;whiteSpace=wrap;html=1;fontSize=10;" vertex="1" parent="1">
          <mxGeometry x="201" y="680" width="30" height="30" as="geometry" />
        </mxCell>
        <mxCell id="GQ0HN8qUK4wQlYkosQbJ-168" value="8bit&lt;br style=&quot;font-size: 10px;&quot;&gt;FF" style="rounded=1;whiteSpace=wrap;html=1;fontSize=10;" vertex="1" parent="1">
          <mxGeometry x="241" y="680" width="30" height="30" as="geometry" />
        </mxCell>
        <mxCell id="GQ0HN8qUK4wQlYkosQbJ-169" value="8bit&lt;br style=&quot;font-size: 10px;&quot;&gt;FF" style="rounded=1;whiteSpace=wrap;html=1;fontSize=10;" vertex="1" parent="1">
          <mxGeometry x="281" y="680" width="30" height="30" as="geometry" />
        </mxCell>
        <mxCell id="GQ0HN8qUK4wQlYkosQbJ-170" value="8bit&lt;br style=&quot;font-size: 10px;&quot;&gt;FF" style="rounded=1;whiteSpace=wrap;html=1;fontSize=10;" vertex="1" parent="1">
          <mxGeometry x="321" y="680" width="30" height="30" as="geometry" />
        </mxCell>
        <mxCell id="GQ0HN8qUK4wQlYkosQbJ-171" value="8bit&lt;br style=&quot;font-size: 10px;&quot;&gt;FF" style="rounded=1;whiteSpace=wrap;html=1;fontSize=10;" vertex="1" parent="1">
          <mxGeometry x="201" y="720" width="30" height="30" as="geometry" />
        </mxCell>
        <mxCell id="GQ0HN8qUK4wQlYkosQbJ-172" value="8bit&lt;br style=&quot;font-size: 10px;&quot;&gt;FF" style="rounded=1;whiteSpace=wrap;html=1;fontSize=10;" vertex="1" parent="1">
          <mxGeometry x="241" y="720" width="30" height="30" as="geometry" />
        </mxCell>
        <mxCell id="GQ0HN8qUK4wQlYkosQbJ-173" value="8bit&lt;br style=&quot;font-size: 10px;&quot;&gt;FF" style="rounded=1;whiteSpace=wrap;html=1;fontSize=10;" vertex="1" parent="1">
          <mxGeometry x="281" y="720" width="30" height="30" as="geometry" />
        </mxCell>
        <mxCell id="GQ0HN8qUK4wQlYkosQbJ-174" value="8bit&lt;br style=&quot;font-size: 10px;&quot;&gt;FF" style="rounded=1;whiteSpace=wrap;html=1;fontSize=10;" vertex="1" parent="1">
          <mxGeometry x="321" y="720" width="30" height="30" as="geometry" />
        </mxCell>
        <mxCell id="GQ0HN8qUK4wQlYkosQbJ-175" value="8bit&lt;br style=&quot;font-size: 10px;&quot;&gt;FF" style="rounded=1;whiteSpace=wrap;html=1;fontSize=10;" vertex="1" parent="1">
          <mxGeometry x="201" y="760" width="30" height="30" as="geometry" />
        </mxCell>
        <mxCell id="GQ0HN8qUK4wQlYkosQbJ-176" value="8bit&lt;br style=&quot;font-size: 10px;&quot;&gt;FF" style="rounded=1;whiteSpace=wrap;html=1;fontSize=10;" vertex="1" parent="1">
          <mxGeometry x="241" y="760" width="30" height="30" as="geometry" />
        </mxCell>
        <mxCell id="GQ0HN8qUK4wQlYkosQbJ-177" value="8bit&lt;br style=&quot;font-size: 10px;&quot;&gt;FF" style="rounded=1;whiteSpace=wrap;html=1;fontSize=10;" vertex="1" parent="1">
          <mxGeometry x="281" y="760" width="30" height="30" as="geometry" />
        </mxCell>
        <mxCell id="GQ0HN8qUK4wQlYkosQbJ-178" value="8bit&lt;br style=&quot;font-size: 10px;&quot;&gt;FF" style="rounded=1;whiteSpace=wrap;html=1;fontSize=10;" vertex="1" parent="1">
          <mxGeometry x="321" y="760" width="30" height="30" as="geometry" />
        </mxCell>
        <mxCell id="GQ0HN8qUK4wQlYkosQbJ-179" value="8bit&lt;br style=&quot;font-size: 10px;&quot;&gt;FF" style="rounded=1;whiteSpace=wrap;html=1;fontSize=10;" vertex="1" parent="1">
          <mxGeometry x="201" y="800" width="30" height="30" as="geometry" />
        </mxCell>
        <mxCell id="GQ0HN8qUK4wQlYkosQbJ-180" value="8bit&lt;br style=&quot;font-size: 10px;&quot;&gt;FF" style="rounded=1;whiteSpace=wrap;html=1;fontSize=10;" vertex="1" parent="1">
          <mxGeometry x="241" y="800" width="30" height="30" as="geometry" />
        </mxCell>
        <mxCell id="GQ0HN8qUK4wQlYkosQbJ-181" value="8bit&lt;br style=&quot;font-size: 10px;&quot;&gt;FF" style="rounded=1;whiteSpace=wrap;html=1;fontSize=10;" vertex="1" parent="1">
          <mxGeometry x="281" y="800" width="30" height="30" as="geometry" />
        </mxCell>
        <mxCell id="GQ0HN8qUK4wQlYkosQbJ-182" value="8bit&lt;br style=&quot;font-size: 10px;&quot;&gt;FF" style="rounded=1;whiteSpace=wrap;html=1;fontSize=10;" vertex="1" parent="1">
          <mxGeometry x="321" y="800" width="30" height="30" as="geometry" />
        </mxCell>
        <mxCell id="GQ0HN8qUK4wQlYkosQbJ-183" value="8bit&lt;br style=&quot;font-size: 10px;&quot;&gt;FF" style="rounded=1;whiteSpace=wrap;html=1;fontSize=10;" vertex="1" parent="1">
          <mxGeometry x="201" y="840" width="30" height="30" as="geometry" />
        </mxCell>
        <mxCell id="GQ0HN8qUK4wQlYkosQbJ-184" value="8bit&lt;br style=&quot;font-size: 10px;&quot;&gt;FF" style="rounded=1;whiteSpace=wrap;html=1;fontSize=10;" vertex="1" parent="1">
          <mxGeometry x="241" y="840" width="30" height="30" as="geometry" />
        </mxCell>
        <mxCell id="GQ0HN8qUK4wQlYkosQbJ-185" value="8bit&lt;br style=&quot;font-size: 10px;&quot;&gt;FF" style="rounded=1;whiteSpace=wrap;html=1;fontSize=10;" vertex="1" parent="1">
          <mxGeometry x="281" y="840" width="30" height="30" as="geometry" />
        </mxCell>
        <mxCell id="GQ0HN8qUK4wQlYkosQbJ-186" value="8bit&lt;br style=&quot;font-size: 10px;&quot;&gt;FF" style="rounded=1;whiteSpace=wrap;html=1;fontSize=10;" vertex="1" parent="1">
          <mxGeometry x="321" y="840" width="30" height="30" as="geometry" />
        </mxCell>
        <mxCell id="GQ0HN8qUK4wQlYkosQbJ-187" value="8bit&lt;br style=&quot;font-size: 10px;&quot;&gt;FF" style="rounded=1;whiteSpace=wrap;html=1;fontSize=10;" vertex="1" parent="1">
          <mxGeometry x="201" y="880" width="30" height="30" as="geometry" />
        </mxCell>
        <mxCell id="GQ0HN8qUK4wQlYkosQbJ-188" value="8bit&lt;br style=&quot;font-size: 10px;&quot;&gt;FF" style="rounded=1;whiteSpace=wrap;html=1;fontSize=10;" vertex="1" parent="1">
          <mxGeometry x="241" y="880" width="30" height="30" as="geometry" />
        </mxCell>
        <mxCell id="GQ0HN8qUK4wQlYkosQbJ-189" value="8bit&lt;br style=&quot;font-size: 10px;&quot;&gt;FF" style="rounded=1;whiteSpace=wrap;html=1;fontSize=10;" vertex="1" parent="1">
          <mxGeometry x="281" y="880" width="30" height="30" as="geometry" />
        </mxCell>
        <mxCell id="GQ0HN8qUK4wQlYkosQbJ-190" value="8bit&lt;br style=&quot;font-size: 10px;&quot;&gt;FF" style="rounded=1;whiteSpace=wrap;html=1;fontSize=10;" vertex="1" parent="1">
          <mxGeometry x="321" y="880" width="30" height="30" as="geometry" />
        </mxCell>
        <mxCell id="GQ0HN8qUK4wQlYkosQbJ-191" value="8bit&lt;br style=&quot;font-size: 10px;&quot;&gt;FF" style="rounded=1;whiteSpace=wrap;html=1;fontSize=10;" vertex="1" parent="1">
          <mxGeometry x="360" y="600" width="30" height="30" as="geometry" />
        </mxCell>
        <mxCell id="GQ0HN8qUK4wQlYkosQbJ-192" value="8bit&lt;br style=&quot;font-size: 10px;&quot;&gt;FF" style="rounded=1;whiteSpace=wrap;html=1;fontSize=10;" vertex="1" parent="1">
          <mxGeometry x="400" y="600" width="30" height="30" as="geometry" />
        </mxCell>
        <mxCell id="GQ0HN8qUK4wQlYkosQbJ-193" value="8bit&lt;br style=&quot;font-size: 10px;&quot;&gt;FF" style="rounded=1;whiteSpace=wrap;html=1;fontSize=10;" vertex="1" parent="1">
          <mxGeometry x="440" y="600" width="30" height="30" as="geometry" />
        </mxCell>
        <mxCell id="GQ0HN8qUK4wQlYkosQbJ-194" value="8bit&lt;br style=&quot;font-size: 10px;&quot;&gt;FF" style="rounded=1;whiteSpace=wrap;html=1;fontSize=10;" vertex="1" parent="1">
          <mxGeometry x="480" y="600" width="30" height="30" as="geometry" />
        </mxCell>
        <mxCell id="GQ0HN8qUK4wQlYkosQbJ-195" value="8bit&lt;br style=&quot;font-size: 10px;&quot;&gt;FF" style="rounded=1;whiteSpace=wrap;html=1;fontSize=10;" vertex="1" parent="1">
          <mxGeometry x="360" y="640" width="30" height="30" as="geometry" />
        </mxCell>
        <mxCell id="GQ0HN8qUK4wQlYkosQbJ-196" value="8bit&lt;br style=&quot;font-size: 10px;&quot;&gt;FF" style="rounded=1;whiteSpace=wrap;html=1;fontSize=10;" vertex="1" parent="1">
          <mxGeometry x="400" y="640" width="30" height="30" as="geometry" />
        </mxCell>
        <mxCell id="GQ0HN8qUK4wQlYkosQbJ-197" value="8bit&lt;br style=&quot;font-size: 10px;&quot;&gt;FF" style="rounded=1;whiteSpace=wrap;html=1;fontSize=10;" vertex="1" parent="1">
          <mxGeometry x="440" y="640" width="30" height="30" as="geometry" />
        </mxCell>
        <mxCell id="GQ0HN8qUK4wQlYkosQbJ-198" value="8bit&lt;br style=&quot;font-size: 10px;&quot;&gt;FF" style="rounded=1;whiteSpace=wrap;html=1;fontSize=10;" vertex="1" parent="1">
          <mxGeometry x="480" y="640" width="30" height="30" as="geometry" />
        </mxCell>
        <mxCell id="GQ0HN8qUK4wQlYkosQbJ-199" value="8bit&lt;br style=&quot;font-size: 10px;&quot;&gt;FF" style="rounded=1;whiteSpace=wrap;html=1;fontSize=10;" vertex="1" parent="1">
          <mxGeometry x="360" y="680" width="30" height="30" as="geometry" />
        </mxCell>
        <mxCell id="GQ0HN8qUK4wQlYkosQbJ-200" value="8bit&lt;br style=&quot;font-size: 10px;&quot;&gt;FF" style="rounded=1;whiteSpace=wrap;html=1;fontSize=10;" vertex="1" parent="1">
          <mxGeometry x="400" y="680" width="30" height="30" as="geometry" />
        </mxCell>
        <mxCell id="GQ0HN8qUK4wQlYkosQbJ-201" value="8bit&lt;br style=&quot;font-size: 10px;&quot;&gt;FF" style="rounded=1;whiteSpace=wrap;html=1;fontSize=10;" vertex="1" parent="1">
          <mxGeometry x="440" y="680" width="30" height="30" as="geometry" />
        </mxCell>
        <mxCell id="GQ0HN8qUK4wQlYkosQbJ-202" value="8bit&lt;br style=&quot;font-size: 10px;&quot;&gt;FF" style="rounded=1;whiteSpace=wrap;html=1;fontSize=10;" vertex="1" parent="1">
          <mxGeometry x="480" y="680" width="30" height="30" as="geometry" />
        </mxCell>
        <mxCell id="GQ0HN8qUK4wQlYkosQbJ-203" value="8bit&lt;br style=&quot;font-size: 10px;&quot;&gt;FF" style="rounded=1;whiteSpace=wrap;html=1;fontSize=10;" vertex="1" parent="1">
          <mxGeometry x="360" y="720" width="30" height="30" as="geometry" />
        </mxCell>
        <mxCell id="GQ0HN8qUK4wQlYkosQbJ-204" value="8bit&lt;br style=&quot;font-size: 10px;&quot;&gt;FF" style="rounded=1;whiteSpace=wrap;html=1;fontSize=10;" vertex="1" parent="1">
          <mxGeometry x="400" y="720" width="30" height="30" as="geometry" />
        </mxCell>
        <mxCell id="GQ0HN8qUK4wQlYkosQbJ-205" value="8bit&lt;br style=&quot;font-size: 10px;&quot;&gt;FF" style="rounded=1;whiteSpace=wrap;html=1;fontSize=10;" vertex="1" parent="1">
          <mxGeometry x="440" y="720" width="30" height="30" as="geometry" />
        </mxCell>
        <mxCell id="GQ0HN8qUK4wQlYkosQbJ-206" value="8bit&lt;br style=&quot;font-size: 10px;&quot;&gt;FF" style="rounded=1;whiteSpace=wrap;html=1;fontSize=10;" vertex="1" parent="1">
          <mxGeometry x="480" y="720" width="30" height="30" as="geometry" />
        </mxCell>
        <mxCell id="GQ0HN8qUK4wQlYkosQbJ-207" value="8bit&lt;br style=&quot;font-size: 10px;&quot;&gt;FF" style="rounded=1;whiteSpace=wrap;html=1;fontSize=10;" vertex="1" parent="1">
          <mxGeometry x="360" y="760" width="30" height="30" as="geometry" />
        </mxCell>
        <mxCell id="GQ0HN8qUK4wQlYkosQbJ-208" value="8bit&lt;br style=&quot;font-size: 10px;&quot;&gt;FF" style="rounded=1;whiteSpace=wrap;html=1;fontSize=10;" vertex="1" parent="1">
          <mxGeometry x="400" y="760" width="30" height="30" as="geometry" />
        </mxCell>
        <mxCell id="GQ0HN8qUK4wQlYkosQbJ-209" value="8bit&lt;br style=&quot;font-size: 10px;&quot;&gt;FF" style="rounded=1;whiteSpace=wrap;html=1;fontSize=10;" vertex="1" parent="1">
          <mxGeometry x="440" y="760" width="30" height="30" as="geometry" />
        </mxCell>
        <mxCell id="GQ0HN8qUK4wQlYkosQbJ-210" value="8bit&lt;br style=&quot;font-size: 10px;&quot;&gt;FF" style="rounded=1;whiteSpace=wrap;html=1;fontSize=10;" vertex="1" parent="1">
          <mxGeometry x="480" y="760" width="30" height="30" as="geometry" />
        </mxCell>
        <mxCell id="GQ0HN8qUK4wQlYkosQbJ-211" value="8bit&lt;br style=&quot;font-size: 10px;&quot;&gt;FF" style="rounded=1;whiteSpace=wrap;html=1;fontSize=10;" vertex="1" parent="1">
          <mxGeometry x="360" y="800" width="30" height="30" as="geometry" />
        </mxCell>
        <mxCell id="GQ0HN8qUK4wQlYkosQbJ-212" value="8bit&lt;br style=&quot;font-size: 10px;&quot;&gt;FF" style="rounded=1;whiteSpace=wrap;html=1;fontSize=10;" vertex="1" parent="1">
          <mxGeometry x="400" y="800" width="30" height="30" as="geometry" />
        </mxCell>
        <mxCell id="GQ0HN8qUK4wQlYkosQbJ-213" value="8bit&lt;br style=&quot;font-size: 10px;&quot;&gt;FF" style="rounded=1;whiteSpace=wrap;html=1;fontSize=10;" vertex="1" parent="1">
          <mxGeometry x="440" y="800" width="30" height="30" as="geometry" />
        </mxCell>
        <mxCell id="GQ0HN8qUK4wQlYkosQbJ-214" value="8bit&lt;br style=&quot;font-size: 10px;&quot;&gt;FF" style="rounded=1;whiteSpace=wrap;html=1;fontSize=10;" vertex="1" parent="1">
          <mxGeometry x="480" y="800" width="30" height="30" as="geometry" />
        </mxCell>
        <mxCell id="GQ0HN8qUK4wQlYkosQbJ-215" value="8bit&lt;br style=&quot;font-size: 10px;&quot;&gt;FF" style="rounded=1;whiteSpace=wrap;html=1;fontSize=10;" vertex="1" parent="1">
          <mxGeometry x="360" y="840" width="30" height="30" as="geometry" />
        </mxCell>
        <mxCell id="GQ0HN8qUK4wQlYkosQbJ-216" value="8bit&lt;br style=&quot;font-size: 10px;&quot;&gt;FF" style="rounded=1;whiteSpace=wrap;html=1;fontSize=10;" vertex="1" parent="1">
          <mxGeometry x="400" y="840" width="30" height="30" as="geometry" />
        </mxCell>
        <mxCell id="GQ0HN8qUK4wQlYkosQbJ-217" value="8bit&lt;br style=&quot;font-size: 10px;&quot;&gt;FF" style="rounded=1;whiteSpace=wrap;html=1;fontSize=10;" vertex="1" parent="1">
          <mxGeometry x="440" y="840" width="30" height="30" as="geometry" />
        </mxCell>
        <mxCell id="GQ0HN8qUK4wQlYkosQbJ-218" value="8bit&lt;br style=&quot;font-size: 10px;&quot;&gt;FF" style="rounded=1;whiteSpace=wrap;html=1;fontSize=10;" vertex="1" parent="1">
          <mxGeometry x="480" y="840" width="30" height="30" as="geometry" />
        </mxCell>
        <mxCell id="GQ0HN8qUK4wQlYkosQbJ-219" value="8bit&lt;br style=&quot;font-size: 10px;&quot;&gt;FF" style="rounded=1;whiteSpace=wrap;html=1;fontSize=10;" vertex="1" parent="1">
          <mxGeometry x="360" y="880" width="30" height="30" as="geometry" />
        </mxCell>
        <mxCell id="GQ0HN8qUK4wQlYkosQbJ-220" value="8bit&lt;br style=&quot;font-size: 10px;&quot;&gt;FF" style="rounded=1;whiteSpace=wrap;html=1;fontSize=10;" vertex="1" parent="1">
          <mxGeometry x="400" y="880" width="30" height="30" as="geometry" />
        </mxCell>
        <mxCell id="GQ0HN8qUK4wQlYkosQbJ-221" value="8bit&lt;br style=&quot;font-size: 10px;&quot;&gt;FF" style="rounded=1;whiteSpace=wrap;html=1;fontSize=10;" vertex="1" parent="1">
          <mxGeometry x="440" y="880" width="30" height="30" as="geometry" />
        </mxCell>
        <mxCell id="GQ0HN8qUK4wQlYkosQbJ-222" value="8bit&lt;br style=&quot;font-size: 10px;&quot;&gt;FF" style="rounded=1;whiteSpace=wrap;html=1;fontSize=10;" vertex="1" parent="1">
          <mxGeometry x="480" y="880" width="30" height="30" as="geometry" />
        </mxCell>
        <mxCell id="GQ0HN8qUK4wQlYkosQbJ-228" value="" style="group" vertex="1" connectable="0" parent="1">
          <mxGeometry x="-370" y="610" width="292" height="270" as="geometry" />
        </mxCell>
        <mxCell id="GQ0HN8qUK4wQlYkosQbJ-223" value="Input Feature Map" style="rounded=0;whiteSpace=wrap;html=1;" vertex="1" parent="GQ0HN8qUK4wQlYkosQbJ-228">
          <mxGeometry x="52" y="30" width="240" height="240" as="geometry" />
        </mxCell>
        <mxCell id="GQ0HN8qUK4wQlYkosQbJ-225" value="128" style="text;html=1;strokeColor=none;fillColor=none;align=center;verticalAlign=middle;whiteSpace=wrap;rounded=0;" vertex="1" parent="GQ0HN8qUK4wQlYkosQbJ-228">
          <mxGeometry x="142" width="60" height="30" as="geometry" />
        </mxCell>
        <mxCell id="GQ0HN8qUK4wQlYkosQbJ-226" value="128" style="text;html=1;strokeColor=none;fillColor=none;align=center;verticalAlign=middle;whiteSpace=wrap;rounded=0;" vertex="1" parent="GQ0HN8qUK4wQlYkosQbJ-228">
          <mxGeometry y="130" width="60" height="30" as="geometry" />
        </mxCell>
        <mxCell id="GQ0HN8qUK4wQlYkosQbJ-230" value="8bit&lt;br style=&quot;font-size: 10px;&quot;&gt;FF" style="rounded=1;whiteSpace=wrap;html=1;fontSize=10;" vertex="1" parent="1">
          <mxGeometry x="200" y="920" width="30" height="30" as="geometry" />
        </mxCell>
        <mxCell id="GQ0HN8qUK4wQlYkosQbJ-231" value="8bit&lt;br style=&quot;font-size: 10px;&quot;&gt;FF" style="rounded=1;whiteSpace=wrap;html=1;fontSize=10;" vertex="1" parent="1">
          <mxGeometry x="240" y="920" width="30" height="30" as="geometry" />
        </mxCell>
        <mxCell id="GQ0HN8qUK4wQlYkosQbJ-232" value="8bit&lt;br style=&quot;font-size: 10px;&quot;&gt;FF" style="rounded=1;whiteSpace=wrap;html=1;fontSize=10;" vertex="1" parent="1">
          <mxGeometry x="280" y="920" width="30" height="30" as="geometry" />
        </mxCell>
        <mxCell id="GQ0HN8qUK4wQlYkosQbJ-233" value="8bit&lt;br style=&quot;font-size: 10px;&quot;&gt;FF" style="rounded=1;whiteSpace=wrap;html=1;fontSize=10;" vertex="1" parent="1">
          <mxGeometry x="320" y="920" width="30" height="30" as="geometry" />
        </mxCell>
        <mxCell id="GQ0HN8qUK4wQlYkosQbJ-234" value="8bit&lt;br style=&quot;font-size: 10px;&quot;&gt;FF" style="rounded=1;whiteSpace=wrap;html=1;fontSize=10;" vertex="1" parent="1">
          <mxGeometry x="200" y="960" width="30" height="30" as="geometry" />
        </mxCell>
        <mxCell id="GQ0HN8qUK4wQlYkosQbJ-235" value="8bit&lt;br style=&quot;font-size: 10px;&quot;&gt;FF" style="rounded=1;whiteSpace=wrap;html=1;fontSize=10;" vertex="1" parent="1">
          <mxGeometry x="240" y="960" width="30" height="30" as="geometry" />
        </mxCell>
        <mxCell id="GQ0HN8qUK4wQlYkosQbJ-236" value="8bit&lt;br style=&quot;font-size: 10px;&quot;&gt;FF" style="rounded=1;whiteSpace=wrap;html=1;fontSize=10;" vertex="1" parent="1">
          <mxGeometry x="280" y="960" width="30" height="30" as="geometry" />
        </mxCell>
        <mxCell id="GQ0HN8qUK4wQlYkosQbJ-237" value="8bit&lt;br style=&quot;font-size: 10px;&quot;&gt;FF" style="rounded=1;whiteSpace=wrap;html=1;fontSize=10;" vertex="1" parent="1">
          <mxGeometry x="320" y="960" width="30" height="30" as="geometry" />
        </mxCell>
        <mxCell id="GQ0HN8qUK4wQlYkosQbJ-238" value="8bit&lt;br style=&quot;font-size: 10px;&quot;&gt;FF" style="rounded=1;whiteSpace=wrap;html=1;fontSize=10;" vertex="1" parent="1">
          <mxGeometry x="200" y="1000" width="30" height="30" as="geometry" />
        </mxCell>
        <mxCell id="GQ0HN8qUK4wQlYkosQbJ-239" value="8bit&lt;br style=&quot;font-size: 10px;&quot;&gt;FF" style="rounded=1;whiteSpace=wrap;html=1;fontSize=10;" vertex="1" parent="1">
          <mxGeometry x="240" y="1000" width="30" height="30" as="geometry" />
        </mxCell>
        <mxCell id="GQ0HN8qUK4wQlYkosQbJ-240" value="8bit&lt;br style=&quot;font-size: 10px;&quot;&gt;FF" style="rounded=1;whiteSpace=wrap;html=1;fontSize=10;" vertex="1" parent="1">
          <mxGeometry x="280" y="1000" width="30" height="30" as="geometry" />
        </mxCell>
        <mxCell id="GQ0HN8qUK4wQlYkosQbJ-241" value="8bit&lt;br style=&quot;font-size: 10px;&quot;&gt;FF" style="rounded=1;whiteSpace=wrap;html=1;fontSize=10;" vertex="1" parent="1">
          <mxGeometry x="320" y="1000" width="30" height="30" as="geometry" />
        </mxCell>
        <mxCell id="GQ0HN8qUK4wQlYkosQbJ-242" value="8bit&lt;br style=&quot;font-size: 10px;&quot;&gt;FF" style="rounded=1;whiteSpace=wrap;html=1;fontSize=10;" vertex="1" parent="1">
          <mxGeometry x="200" y="1040" width="30" height="30" as="geometry" />
        </mxCell>
        <mxCell id="GQ0HN8qUK4wQlYkosQbJ-243" value="8bit&lt;br style=&quot;font-size: 10px;&quot;&gt;FF" style="rounded=1;whiteSpace=wrap;html=1;fontSize=10;" vertex="1" parent="1">
          <mxGeometry x="240" y="1040" width="30" height="30" as="geometry" />
        </mxCell>
        <mxCell id="GQ0HN8qUK4wQlYkosQbJ-244" value="8bit&lt;br style=&quot;font-size: 10px;&quot;&gt;FF" style="rounded=1;whiteSpace=wrap;html=1;fontSize=10;" vertex="1" parent="1">
          <mxGeometry x="280" y="1040" width="30" height="30" as="geometry" />
        </mxCell>
        <mxCell id="GQ0HN8qUK4wQlYkosQbJ-245" value="8bit&lt;br style=&quot;font-size: 10px;&quot;&gt;FF" style="rounded=1;whiteSpace=wrap;html=1;fontSize=10;" vertex="1" parent="1">
          <mxGeometry x="320" y="1040" width="30" height="30" as="geometry" />
        </mxCell>
        <mxCell id="GQ0HN8qUK4wQlYkosQbJ-246" value="8bit&lt;br style=&quot;font-size: 10px;&quot;&gt;FF" style="rounded=1;whiteSpace=wrap;html=1;fontSize=10;" vertex="1" parent="1">
          <mxGeometry x="200" y="1080" width="30" height="30" as="geometry" />
        </mxCell>
        <mxCell id="GQ0HN8qUK4wQlYkosQbJ-247" value="8bit&lt;br style=&quot;font-size: 10px;&quot;&gt;FF" style="rounded=1;whiteSpace=wrap;html=1;fontSize=10;" vertex="1" parent="1">
          <mxGeometry x="240" y="1080" width="30" height="30" as="geometry" />
        </mxCell>
        <mxCell id="GQ0HN8qUK4wQlYkosQbJ-248" value="8bit&lt;br style=&quot;font-size: 10px;&quot;&gt;FF" style="rounded=1;whiteSpace=wrap;html=1;fontSize=10;" vertex="1" parent="1">
          <mxGeometry x="280" y="1080" width="30" height="30" as="geometry" />
        </mxCell>
        <mxCell id="GQ0HN8qUK4wQlYkosQbJ-249" value="8bit&lt;br style=&quot;font-size: 10px;&quot;&gt;FF" style="rounded=1;whiteSpace=wrap;html=1;fontSize=10;" vertex="1" parent="1">
          <mxGeometry x="320" y="1080" width="30" height="30" as="geometry" />
        </mxCell>
        <mxCell id="GQ0HN8qUK4wQlYkosQbJ-250" value="8bit&lt;br style=&quot;font-size: 10px;&quot;&gt;FF" style="rounded=1;whiteSpace=wrap;html=1;fontSize=10;" vertex="1" parent="1">
          <mxGeometry x="200" y="1120" width="30" height="30" as="geometry" />
        </mxCell>
        <mxCell id="GQ0HN8qUK4wQlYkosQbJ-251" value="8bit&lt;br style=&quot;font-size: 10px;&quot;&gt;FF" style="rounded=1;whiteSpace=wrap;html=1;fontSize=10;" vertex="1" parent="1">
          <mxGeometry x="240" y="1120" width="30" height="30" as="geometry" />
        </mxCell>
        <mxCell id="GQ0HN8qUK4wQlYkosQbJ-252" value="8bit&lt;br style=&quot;font-size: 10px;&quot;&gt;FF" style="rounded=1;whiteSpace=wrap;html=1;fontSize=10;" vertex="1" parent="1">
          <mxGeometry x="280" y="1120" width="30" height="30" as="geometry" />
        </mxCell>
        <mxCell id="GQ0HN8qUK4wQlYkosQbJ-253" value="8bit&lt;br style=&quot;font-size: 10px;&quot;&gt;FF" style="rounded=1;whiteSpace=wrap;html=1;fontSize=10;" vertex="1" parent="1">
          <mxGeometry x="320" y="1120" width="30" height="30" as="geometry" />
        </mxCell>
        <mxCell id="GQ0HN8qUK4wQlYkosQbJ-254" value="8bit&lt;br style=&quot;font-size: 10px;&quot;&gt;FF" style="rounded=1;whiteSpace=wrap;html=1;fontSize=10;" vertex="1" parent="1">
          <mxGeometry x="200" y="1160" width="30" height="30" as="geometry" />
        </mxCell>
        <mxCell id="GQ0HN8qUK4wQlYkosQbJ-255" value="8bit&lt;br style=&quot;font-size: 10px;&quot;&gt;FF" style="rounded=1;whiteSpace=wrap;html=1;fontSize=10;" vertex="1" parent="1">
          <mxGeometry x="240" y="1160" width="30" height="30" as="geometry" />
        </mxCell>
        <mxCell id="GQ0HN8qUK4wQlYkosQbJ-256" value="8bit&lt;br style=&quot;font-size: 10px;&quot;&gt;FF" style="rounded=1;whiteSpace=wrap;html=1;fontSize=10;" vertex="1" parent="1">
          <mxGeometry x="280" y="1160" width="30" height="30" as="geometry" />
        </mxCell>
        <mxCell id="GQ0HN8qUK4wQlYkosQbJ-257" value="8bit&lt;br style=&quot;font-size: 10px;&quot;&gt;FF" style="rounded=1;whiteSpace=wrap;html=1;fontSize=10;" vertex="1" parent="1">
          <mxGeometry x="320" y="1160" width="30" height="30" as="geometry" />
        </mxCell>
        <mxCell id="GQ0HN8qUK4wQlYkosQbJ-258" value="8bit&lt;br style=&quot;font-size: 10px;&quot;&gt;FF" style="rounded=1;whiteSpace=wrap;html=1;fontSize=10;" vertex="1" parent="1">
          <mxGeometry x="200" y="1200" width="30" height="30" as="geometry" />
        </mxCell>
        <mxCell id="GQ0HN8qUK4wQlYkosQbJ-259" value="8bit&lt;br style=&quot;font-size: 10px;&quot;&gt;FF" style="rounded=1;whiteSpace=wrap;html=1;fontSize=10;" vertex="1" parent="1">
          <mxGeometry x="240" y="1200" width="30" height="30" as="geometry" />
        </mxCell>
        <mxCell id="GQ0HN8qUK4wQlYkosQbJ-260" value="8bit&lt;br style=&quot;font-size: 10px;&quot;&gt;FF" style="rounded=1;whiteSpace=wrap;html=1;fontSize=10;" vertex="1" parent="1">
          <mxGeometry x="280" y="1200" width="30" height="30" as="geometry" />
        </mxCell>
        <mxCell id="GQ0HN8qUK4wQlYkosQbJ-261" value="8bit&lt;br style=&quot;font-size: 10px;&quot;&gt;FF" style="rounded=1;whiteSpace=wrap;html=1;fontSize=10;" vertex="1" parent="1">
          <mxGeometry x="320" y="1200" width="30" height="30" as="geometry" />
        </mxCell>
        <mxCell id="GQ0HN8qUK4wQlYkosQbJ-262" value="8bit&lt;br style=&quot;font-size: 10px;&quot;&gt;FF" style="rounded=1;whiteSpace=wrap;html=1;fontSize=10;" vertex="1" parent="1">
          <mxGeometry x="359" y="920" width="30" height="30" as="geometry" />
        </mxCell>
        <mxCell id="GQ0HN8qUK4wQlYkosQbJ-263" value="8bit&lt;br style=&quot;font-size: 10px;&quot;&gt;FF" style="rounded=1;whiteSpace=wrap;html=1;fontSize=10;" vertex="1" parent="1">
          <mxGeometry x="399" y="920" width="30" height="30" as="geometry" />
        </mxCell>
        <mxCell id="GQ0HN8qUK4wQlYkosQbJ-264" value="8bit&lt;br style=&quot;font-size: 10px;&quot;&gt;FF" style="rounded=1;whiteSpace=wrap;html=1;fontSize=10;" vertex="1" parent="1">
          <mxGeometry x="439" y="920" width="30" height="30" as="geometry" />
        </mxCell>
        <mxCell id="GQ0HN8qUK4wQlYkosQbJ-265" value="8bit&lt;br style=&quot;font-size: 10px;&quot;&gt;FF" style="rounded=1;whiteSpace=wrap;html=1;fontSize=10;" vertex="1" parent="1">
          <mxGeometry x="479" y="920" width="30" height="30" as="geometry" />
        </mxCell>
        <mxCell id="GQ0HN8qUK4wQlYkosQbJ-266" value="8bit&lt;br style=&quot;font-size: 10px;&quot;&gt;FF" style="rounded=1;whiteSpace=wrap;html=1;fontSize=10;" vertex="1" parent="1">
          <mxGeometry x="359" y="960" width="30" height="30" as="geometry" />
        </mxCell>
        <mxCell id="GQ0HN8qUK4wQlYkosQbJ-267" value="8bit&lt;br style=&quot;font-size: 10px;&quot;&gt;FF" style="rounded=1;whiteSpace=wrap;html=1;fontSize=10;" vertex="1" parent="1">
          <mxGeometry x="399" y="960" width="30" height="30" as="geometry" />
        </mxCell>
        <mxCell id="GQ0HN8qUK4wQlYkosQbJ-268" value="8bit&lt;br style=&quot;font-size: 10px;&quot;&gt;FF" style="rounded=1;whiteSpace=wrap;html=1;fontSize=10;" vertex="1" parent="1">
          <mxGeometry x="439" y="960" width="30" height="30" as="geometry" />
        </mxCell>
        <mxCell id="GQ0HN8qUK4wQlYkosQbJ-269" value="8bit&lt;br style=&quot;font-size: 10px;&quot;&gt;FF" style="rounded=1;whiteSpace=wrap;html=1;fontSize=10;" vertex="1" parent="1">
          <mxGeometry x="479" y="960" width="30" height="30" as="geometry" />
        </mxCell>
        <mxCell id="GQ0HN8qUK4wQlYkosQbJ-270" value="8bit&lt;br style=&quot;font-size: 10px;&quot;&gt;FF" style="rounded=1;whiteSpace=wrap;html=1;fontSize=10;" vertex="1" parent="1">
          <mxGeometry x="359" y="1000" width="30" height="30" as="geometry" />
        </mxCell>
        <mxCell id="GQ0HN8qUK4wQlYkosQbJ-271" value="8bit&lt;br style=&quot;font-size: 10px;&quot;&gt;FF" style="rounded=1;whiteSpace=wrap;html=1;fontSize=10;" vertex="1" parent="1">
          <mxGeometry x="399" y="1000" width="30" height="30" as="geometry" />
        </mxCell>
        <mxCell id="GQ0HN8qUK4wQlYkosQbJ-272" value="8bit&lt;br style=&quot;font-size: 10px;&quot;&gt;FF" style="rounded=1;whiteSpace=wrap;html=1;fontSize=10;" vertex="1" parent="1">
          <mxGeometry x="439" y="1000" width="30" height="30" as="geometry" />
        </mxCell>
        <mxCell id="GQ0HN8qUK4wQlYkosQbJ-273" value="8bit&lt;br style=&quot;font-size: 10px;&quot;&gt;FF" style="rounded=1;whiteSpace=wrap;html=1;fontSize=10;" vertex="1" parent="1">
          <mxGeometry x="479" y="1000" width="30" height="30" as="geometry" />
        </mxCell>
        <mxCell id="GQ0HN8qUK4wQlYkosQbJ-274" value="8bit&lt;br style=&quot;font-size: 10px;&quot;&gt;FF" style="rounded=1;whiteSpace=wrap;html=1;fontSize=10;" vertex="1" parent="1">
          <mxGeometry x="359" y="1040" width="30" height="30" as="geometry" />
        </mxCell>
        <mxCell id="GQ0HN8qUK4wQlYkosQbJ-275" value="8bit&lt;br style=&quot;font-size: 10px;&quot;&gt;FF" style="rounded=1;whiteSpace=wrap;html=1;fontSize=10;" vertex="1" parent="1">
          <mxGeometry x="399" y="1040" width="30" height="30" as="geometry" />
        </mxCell>
        <mxCell id="GQ0HN8qUK4wQlYkosQbJ-276" value="8bit&lt;br style=&quot;font-size: 10px;&quot;&gt;FF" style="rounded=1;whiteSpace=wrap;html=1;fontSize=10;" vertex="1" parent="1">
          <mxGeometry x="439" y="1040" width="30" height="30" as="geometry" />
        </mxCell>
        <mxCell id="GQ0HN8qUK4wQlYkosQbJ-277" value="8bit&lt;br style=&quot;font-size: 10px;&quot;&gt;FF" style="rounded=1;whiteSpace=wrap;html=1;fontSize=10;" vertex="1" parent="1">
          <mxGeometry x="479" y="1040" width="30" height="30" as="geometry" />
        </mxCell>
        <mxCell id="GQ0HN8qUK4wQlYkosQbJ-278" value="8bit&lt;br style=&quot;font-size: 10px;&quot;&gt;FF" style="rounded=1;whiteSpace=wrap;html=1;fontSize=10;" vertex="1" parent="1">
          <mxGeometry x="359" y="1080" width="30" height="30" as="geometry" />
        </mxCell>
        <mxCell id="GQ0HN8qUK4wQlYkosQbJ-279" value="8bit&lt;br style=&quot;font-size: 10px;&quot;&gt;FF" style="rounded=1;whiteSpace=wrap;html=1;fontSize=10;" vertex="1" parent="1">
          <mxGeometry x="399" y="1080" width="30" height="30" as="geometry" />
        </mxCell>
        <mxCell id="GQ0HN8qUK4wQlYkosQbJ-280" value="8bit&lt;br style=&quot;font-size: 10px;&quot;&gt;FF" style="rounded=1;whiteSpace=wrap;html=1;fontSize=10;" vertex="1" parent="1">
          <mxGeometry x="439" y="1080" width="30" height="30" as="geometry" />
        </mxCell>
        <mxCell id="GQ0HN8qUK4wQlYkosQbJ-281" value="8bit&lt;br style=&quot;font-size: 10px;&quot;&gt;FF" style="rounded=1;whiteSpace=wrap;html=1;fontSize=10;" vertex="1" parent="1">
          <mxGeometry x="479" y="1080" width="30" height="30" as="geometry" />
        </mxCell>
        <mxCell id="GQ0HN8qUK4wQlYkosQbJ-282" value="8bit&lt;br style=&quot;font-size: 10px;&quot;&gt;FF" style="rounded=1;whiteSpace=wrap;html=1;fontSize=10;" vertex="1" parent="1">
          <mxGeometry x="359" y="1120" width="30" height="30" as="geometry" />
        </mxCell>
        <mxCell id="GQ0HN8qUK4wQlYkosQbJ-283" value="8bit&lt;br style=&quot;font-size: 10px;&quot;&gt;FF" style="rounded=1;whiteSpace=wrap;html=1;fontSize=10;" vertex="1" parent="1">
          <mxGeometry x="399" y="1120" width="30" height="30" as="geometry" />
        </mxCell>
        <mxCell id="GQ0HN8qUK4wQlYkosQbJ-284" value="8bit&lt;br style=&quot;font-size: 10px;&quot;&gt;FF" style="rounded=1;whiteSpace=wrap;html=1;fontSize=10;" vertex="1" parent="1">
          <mxGeometry x="439" y="1120" width="30" height="30" as="geometry" />
        </mxCell>
        <mxCell id="GQ0HN8qUK4wQlYkosQbJ-285" value="8bit&lt;br style=&quot;font-size: 10px;&quot;&gt;FF" style="rounded=1;whiteSpace=wrap;html=1;fontSize=10;" vertex="1" parent="1">
          <mxGeometry x="479" y="1120" width="30" height="30" as="geometry" />
        </mxCell>
        <mxCell id="GQ0HN8qUK4wQlYkosQbJ-286" value="8bit&lt;br style=&quot;font-size: 10px;&quot;&gt;FF" style="rounded=1;whiteSpace=wrap;html=1;fontSize=10;" vertex="1" parent="1">
          <mxGeometry x="359" y="1160" width="30" height="30" as="geometry" />
        </mxCell>
        <mxCell id="GQ0HN8qUK4wQlYkosQbJ-287" value="8bit&lt;br style=&quot;font-size: 10px;&quot;&gt;FF" style="rounded=1;whiteSpace=wrap;html=1;fontSize=10;" vertex="1" parent="1">
          <mxGeometry x="399" y="1160" width="30" height="30" as="geometry" />
        </mxCell>
        <mxCell id="GQ0HN8qUK4wQlYkosQbJ-288" value="8bit&lt;br style=&quot;font-size: 10px;&quot;&gt;FF" style="rounded=1;whiteSpace=wrap;html=1;fontSize=10;" vertex="1" parent="1">
          <mxGeometry x="439" y="1160" width="30" height="30" as="geometry" />
        </mxCell>
        <mxCell id="GQ0HN8qUK4wQlYkosQbJ-289" value="8bit&lt;br style=&quot;font-size: 10px;&quot;&gt;FF" style="rounded=1;whiteSpace=wrap;html=1;fontSize=10;" vertex="1" parent="1">
          <mxGeometry x="479" y="1160" width="30" height="30" as="geometry" />
        </mxCell>
        <mxCell id="GQ0HN8qUK4wQlYkosQbJ-290" value="8bit&lt;br style=&quot;font-size: 10px;&quot;&gt;FF" style="rounded=1;whiteSpace=wrap;html=1;fontSize=10;" vertex="1" parent="1">
          <mxGeometry x="359" y="1200" width="30" height="30" as="geometry" />
        </mxCell>
        <mxCell id="GQ0HN8qUK4wQlYkosQbJ-291" value="8bit&lt;br style=&quot;font-size: 10px;&quot;&gt;FF" style="rounded=1;whiteSpace=wrap;html=1;fontSize=10;" vertex="1" parent="1">
          <mxGeometry x="399" y="1200" width="30" height="30" as="geometry" />
        </mxCell>
        <mxCell id="GQ0HN8qUK4wQlYkosQbJ-292" value="8bit&lt;br style=&quot;font-size: 10px;&quot;&gt;FF" style="rounded=1;whiteSpace=wrap;html=1;fontSize=10;" vertex="1" parent="1">
          <mxGeometry x="439" y="1200" width="30" height="30" as="geometry" />
        </mxCell>
        <mxCell id="GQ0HN8qUK4wQlYkosQbJ-293" value="8bit&lt;br style=&quot;font-size: 10px;&quot;&gt;FF" style="rounded=1;whiteSpace=wrap;html=1;fontSize=10;" vertex="1" parent="1">
          <mxGeometry x="479" y="1200" width="30" height="30" as="geometry" />
        </mxCell>
        <mxCell id="GQ0HN8qUK4wQlYkosQbJ-294" value="" style="endArrow=none;dashed=1;html=1;dashPattern=1 3;strokeWidth=2;rounded=0;" edge="1" parent="1">
          <mxGeometry width="50" height="50" relative="1" as="geometry">
            <mxPoint x="520" y="720" as="sourcePoint" />
            <mxPoint x="680" y="720" as="targetPoint" />
          </mxGeometry>
        </mxCell>
        <mxCell id="GQ0HN8qUK4wQlYkosQbJ-295" value="" style="rounded=0;whiteSpace=wrap;html=1;strokeColor=#FF3333;" vertex="1" parent="1">
          <mxGeometry x="748" y="701" width="225" height="105" as="geometry" />
        </mxCell>
        <mxCell id="GQ0HN8qUK4wQlYkosQbJ-296" value="" style="endArrow=classic;html=1;rounded=0;strokeColor=#FF3333;" edge="1" parent="1">
          <mxGeometry width="50" height="50" relative="1" as="geometry">
            <mxPoint x="691" y="756" as="sourcePoint" />
            <mxPoint x="742" y="756" as="targetPoint" />
          </mxGeometry>
        </mxCell>
        <mxCell id="GQ0HN8qUK4wQlYkosQbJ-297" value="9&lt;br style=&quot;font-size: 10px;&quot;&gt;2&lt;br style=&quot;font-size: 10px;&quot;&gt;3&lt;br style=&quot;font-size: 10px;&quot;&gt;4&lt;br style=&quot;font-size: 10px;&quot;&gt;5&lt;br style=&quot;font-size: 10px;&quot;&gt;6&lt;br style=&quot;font-size: 10px;&quot;&gt;7&lt;br style=&quot;font-size: 10px;&quot;&gt;8" style="text;html=1;strokeColor=none;fillColor=none;align=center;verticalAlign=middle;whiteSpace=wrap;rounded=0;fontSize=10;" vertex="1" parent="1">
          <mxGeometry x="729" y="706" width="60" height="94" as="geometry" />
        </mxCell>
        <mxCell id="GQ0HN8qUK4wQlYkosQbJ-298" value="1" style="text;html=1;strokeColor=none;fillColor=none;align=center;verticalAlign=middle;whiteSpace=wrap;rounded=0;" vertex="1" parent="1">
          <mxGeometry x="141" y="600" width="60" height="30" as="geometry" />
        </mxCell>
        <mxCell id="GQ0HN8qUK4wQlYkosQbJ-299" value="2" style="text;html=1;strokeColor=none;fillColor=none;align=center;verticalAlign=middle;whiteSpace=wrap;rounded=0;" vertex="1" parent="1">
          <mxGeometry x="141" y="641" width="60" height="30" as="geometry" />
        </mxCell>
        <mxCell id="GQ0HN8qUK4wQlYkosQbJ-300" value="4" style="text;html=1;strokeColor=none;fillColor=none;align=center;verticalAlign=middle;whiteSpace=wrap;rounded=0;" vertex="1" parent="1">
          <mxGeometry x="141" y="721" width="60" height="30" as="geometry" />
        </mxCell>
        <mxCell id="GQ0HN8qUK4wQlYkosQbJ-301" value="3" style="text;html=1;strokeColor=none;fillColor=none;align=center;verticalAlign=middle;whiteSpace=wrap;rounded=0;" vertex="1" parent="1">
          <mxGeometry x="141" y="680" width="60" height="29" as="geometry" />
        </mxCell>
        <mxCell id="GQ0HN8qUK4wQlYkosQbJ-302" value="5" style="text;html=1;strokeColor=none;fillColor=none;align=center;verticalAlign=middle;whiteSpace=wrap;rounded=0;" vertex="1" parent="1">
          <mxGeometry x="141" y="760" width="60" height="30" as="geometry" />
        </mxCell>
        <mxCell id="GQ0HN8qUK4wQlYkosQbJ-303" value="6" style="text;html=1;strokeColor=none;fillColor=none;align=center;verticalAlign=middle;whiteSpace=wrap;rounded=0;" vertex="1" parent="1">
          <mxGeometry x="141" y="800" width="60" height="30" as="geometry" />
        </mxCell>
        <mxCell id="GQ0HN8qUK4wQlYkosQbJ-304" value="4" style="text;html=1;strokeColor=none;fillColor=none;align=center;verticalAlign=middle;whiteSpace=wrap;rounded=0;" vertex="1" parent="1">
          <mxGeometry x="382" y="1422" width="60" height="30" as="geometry" />
        </mxCell>
        <mxCell id="GQ0HN8qUK4wQlYkosQbJ-305" value="7" style="text;html=1;strokeColor=none;fillColor=none;align=center;verticalAlign=middle;whiteSpace=wrap;rounded=0;" vertex="1" parent="1">
          <mxGeometry x="141" y="838" width="60" height="29" as="geometry" />
        </mxCell>
        <mxCell id="GQ0HN8qUK4wQlYkosQbJ-306" value="7" style="text;html=1;strokeColor=none;fillColor=none;align=center;verticalAlign=middle;whiteSpace=wrap;rounded=0;" vertex="1" parent="1">
          <mxGeometry x="436" y="1444" width="60" height="29" as="geometry" />
        </mxCell>
        <mxCell id="GQ0HN8qUK4wQlYkosQbJ-307" value="8" style="text;html=1;strokeColor=none;fillColor=none;align=center;verticalAlign=middle;whiteSpace=wrap;rounded=0;" vertex="1" parent="1">
          <mxGeometry x="141" y="880" width="60" height="29" as="geometry" />
        </mxCell>
        <mxCell id="GQ0HN8qUK4wQlYkosQbJ-308" value="9" style="text;html=1;strokeColor=none;fillColor=none;align=center;verticalAlign=middle;whiteSpace=wrap;rounded=0;" vertex="1" parent="1">
          <mxGeometry x="141" y="920" width="60" height="29" as="geometry" />
        </mxCell>
        <mxCell id="GQ0HN8qUK4wQlYkosQbJ-309" value="10" style="text;html=1;strokeColor=none;fillColor=none;align=center;verticalAlign=middle;whiteSpace=wrap;rounded=0;" vertex="1" parent="1">
          <mxGeometry x="141" y="960" width="60" height="29" as="geometry" />
        </mxCell>
        <mxCell id="GQ0HN8qUK4wQlYkosQbJ-316" value="" style="group" vertex="1" connectable="0" parent="1">
          <mxGeometry x="753" y="718" width="145" height="40" as="geometry" />
        </mxCell>
        <mxCell id="GQ0HN8qUK4wQlYkosQbJ-314" value="" style="whiteSpace=wrap;html=1;aspect=fixed;strokeColor=#3333FF;fillColor=none;strokeWidth=3;" vertex="1" parent="GQ0HN8qUK4wQlYkosQbJ-316">
          <mxGeometry width="34.342105263157904" height="34.342105263157904" as="geometry" />
        </mxCell>
        <mxCell id="GQ0HN8qUK4wQlYkosQbJ-315" value="" style="endArrow=classic;html=1;rounded=0;exitX=0.276;exitY=0.192;exitDx=0;exitDy=0;exitPerimeter=0;strokeColor=#3333FF;strokeWidth=3;" edge="1" parent="GQ0HN8qUK4wQlYkosQbJ-316">
          <mxGeometry width="50" height="50" relative="1" as="geometry">
            <mxPoint x="56.72058823529412" y="19.831932773109244" as="sourcePoint" />
            <mxPoint x="145" y="19.831932773109244" as="targetPoint" />
          </mxGeometry>
        </mxCell>
        <mxCell id="GQ0HN8qUK4wQlYkosQbJ-319" value="" style="group" vertex="1" connectable="0" parent="1">
          <mxGeometry x="194" y="634" width="492" height="318" as="geometry" />
        </mxCell>
        <mxCell id="GQ0HN8qUK4wQlYkosQbJ-229" value="" style="rounded=0;whiteSpace=wrap;html=1;fillColor=none;strokeColor=#FF3333;" vertex="1" parent="GQ0HN8qUK4wQlYkosQbJ-319">
          <mxGeometry width="492" height="318" as="geometry" />
        </mxCell>
        <mxCell id="GQ0HN8qUK4wQlYkosQbJ-310" value="" style="whiteSpace=wrap;html=1;aspect=fixed;strokeColor=#3333FF;fillColor=none;strokeWidth=3;" vertex="1" parent="GQ0HN8qUK4wQlYkosQbJ-319">
          <mxGeometry x="3" y="2" width="119" height="119" as="geometry" />
        </mxCell>
        <mxCell id="GQ0HN8qUK4wQlYkosQbJ-312" value="" style="endArrow=classic;html=1;rounded=0;exitX=0.276;exitY=0.192;exitDx=0;exitDy=0;exitPerimeter=0;strokeColor=#3333FF;strokeWidth=3;" edge="1" parent="GQ0HN8qUK4wQlYkosQbJ-319" source="GQ0HN8qUK4wQlYkosQbJ-229">
          <mxGeometry width="50" height="50" relative="1" as="geometry">
            <mxPoint x="369" y="199" as="sourcePoint" />
            <mxPoint x="343" y="61" as="targetPoint" />
          </mxGeometry>
        </mxCell>
      </root>
    </mxGraphModel>
  </diagram>
</mxfile>
